<?xml version="1.0" standalone="no"?>
<!DOCTYPE svg PUBLIC "-//W3C//DTD SVG 1.1//EN" "http://www.w3.org/Graphics/SVG/1.1/DTD/svg11.dtd" >
<svg xmlns="http://www.w3.org/2000/svg" xmlns:xlink="http://www.w3.org/1999/xlink" version="1.1">
<metadata>
Created by FontForge 20170910 at Mon Apr  1 18:06:53 2002
 By Jimmy Wärting
Copyright 1989, 1995 , 2002Adobe Systems Incorporated. All Rights Reserved. 
</metadata>
<defs>
<font id="VAGRoundedStd-Thin" horiz-adv-x="536" >
  <font-face 
    font-family="VAG Rounded Std"
    font-weight="250"
    font-stretch="normal"
    units-per-em="1000"
    panose-1="2 15 4 2 2 2 4 2 2 4"
    ascent="770"
    descent="-230"
    x-height="532"
    cap-height="718"
    bbox="-108 -288 1053 922"
    underline-thickness="50"
    underline-position="-100"
    stemh="66"
    stemv="72"
    unicode-range="U+0020-FB02"
  />
<missing-glyph horiz-adv-x="500" 
d="M0 0v700h500v-700h-500zM250 395l170 255h-340zM280 350l170 -255v510zM80 50h340l-170 255zM50 605v-510l170 255z" />
    <glyph glyph-name="fi" unicode="fi" horiz-adv-x="444" 
d="M156 472v-432c0 -30 -13 -46 -36 -46s-36 16 -36 46v432h-47c-24 0 -31 18 -31 30s7 30 31 30h47v137c0 72 42 103 95 103h37c34 0 49 -15 49 -33s-9 -33 -38 -33h-33c-23 0 -38 -15 -38 -33v-141h64c24 0 31 -18 31 -30s-7 -30 -31 -30h-64zM378 492v-452
c0 -30 -13 -46 -36 -46s-36 16 -36 46v452c0 30 13 46 36 46s36 -16 36 -46zM342 620c-27 0 -49 22 -49 49s22 49 49 49s49 -22 49 -49s-22 -49 -49 -49z" />
    <glyph glyph-name="fl" unicode="fl" horiz-adv-x="444" 
d="M156 472v-432c0 -30 -13 -46 -36 -46s-36 16 -36 46v432h-47c-24 0 -31 18 -31 30s7 30 31 30h47v137c0 72 42 103 95 103h37c34 0 49 -15 49 -33s-9 -33 -38 -33h-33c-23 0 -38 -15 -38 -33v-141h64c24 0 31 -18 31 -30s-7 -30 -31 -30h-64zM378 726v-686
c0 -30 -13 -46 -36 -46s-36 16 -36 46v686c0 30 13 46 36 46s36 -16 36 -46z" />
    <glyph glyph-name=".notdef" horiz-adv-x="500" 
d="M0 0v700h500v-700h-500zM250 395l170 255h-340zM280 350l170 -255v510zM80 50h340l-170 255zM50 605v-510l170 255z" />
    <glyph glyph-name="space" unicode=" " horiz-adv-x="240" 
 />
    <glyph glyph-name="exclam" unicode="!" horiz-adv-x="278" 
d="M93 40c0 24 22 46 46 46s46 -22 46 -46c0 -25 -22 -46 -46 -46s-46 21 -46 46zM103 248v424c0 30 13 46 36 46s36 -16 36 -46v-424c0 -30 -13 -46 -36 -46s-36 16 -36 46z" />
    <glyph glyph-name="quotedbl" unicode="&#x22;" horiz-adv-x="315" 
d="M60 548v132c0 23 15 38 33 38s33 -15 33 -38v-132c0 -23 -15 -38 -33 -38s-33 15 -33 38zM189 548v132c0 23 15 38 33 38s33 -15 33 -38v-132c0 -23 -15 -38 -33 -38s-33 15 -33 38z" />
    <glyph glyph-name="numbersign" unicode="#" 
d="M182 216l-26 -186c-3 -23 -12 -36 -34 -36c-18 0 -26 14 -26 28c0 16 2 29 5 48l20 146h-61c-23 0 -41 11 -41 30c0 20 18 30 41 30h70l23 160h-62c-23 0 -41 10 -41 30c0 19 18 30 41 30h70l26 186c3 23 12 36 34 36c18 0 26 -14 26 -28c0 -16 -2 -29 -5 -48l-20 -146
h132l26 186c3 23 12 36 34 36c18 0 26 -14 26 -28c0 -16 -2 -29 -5 -48l-20 -146h61c23 0 41 -11 41 -30c0 -20 -18 -30 -41 -30h-70l-23 -160h62c23 0 41 -10 41 -30c0 -19 -18 -30 -41 -30h-70l-26 -186c-3 -23 -12 -36 -34 -36c-18 0 -26 14 -26 28c0 16 2 29 5 48
l20 146h-132zM324 276l22 160h-133l-22 -160h133z" />
    <glyph glyph-name="dollar" unicode="$" horiz-adv-x="463" 
d="M245 343v-281c76 13 126 83 126 153c0 76 -58 104 -126 128zM209 433v217c-71 -10 -104 -52 -104 -105c0 -61 46 -90 104 -112zM209 60v296c-87 30 -176 64 -176 183c0 104 80 167 176 177v47c0 13 7 20 18 20s18 -7 18 -20v-45c76 -2 156 -40 156 -79
c0 -16 -9 -33 -30 -33c-28 0 -45 44 -126 46v-234c93 -35 198 -70 198 -195c0 -122 -81 -216 -198 -227v-47c0 -13 -7 -20 -18 -20s-18 7 -18 20v45c-115 2 -189 47 -189 88c0 12 10 30 32 30c39 0 55 -52 157 -52z" />
    <glyph glyph-name="percent" unicode="%" horiz-adv-x="741" 
d="M194 372c-82 0 -154 69 -154 169c0 108 75 177 154 177s154 -69 154 -177c0 -100 -72 -169 -154 -169zM194 420c66 0 94 64 94 121c0 74 -35 129 -94 129s-94 -55 -94 -129c0 -57 28 -121 94 -121zM547 -6c-82 0 -154 69 -154 169c0 108 75 177 154 177s154 -69 154 -177
c0 -100 -72 -169 -154 -169zM547 42c66 0 94 64 94 121c0 74 -35 129 -94 129s-94 -55 -94 -129c0 -57 28 -121 94 -121zM215 38l260 665c6 15 14 25 31 25s28 -10 28 -23c0 -8 -3 -16 -9 -31l-260 -665c-6 -15 -14 -25 -31 -25s-28 10 -28 23c0 8 3 16 9 31z" />
    <glyph glyph-name="ampersand" unicode="&#x26;" horiz-adv-x="667" 
d="M314 423l176 -203l28 40c40 57 52 100 81 100c20 0 32 -13 32 -32c0 -13 -20 -60 -99 -159l92 -103c14 -15 16 -24 16 -30c0 -27 -14 -39 -36 -39c-12 0 -18 5 -33 23l-80 92c-53 -64 -130 -118 -217 -118c-147 0 -233 87 -233 214c0 100 68 172 170 231
c-63 69 -82 102 -82 145c0 75 53 134 157 134c85 0 158 -44 158 -130c0 -80 -69 -128 -130 -165zM372 584c0 45 -37 74 -90 74c-39 0 -81 -16 -81 -74c0 -34 39 -76 69 -110c77 44 102 70 102 110zM445 165l-194 223c-80 -40 -132 -105 -132 -177c0 -91 61 -151 152 -151
c54 0 124 30 174 105z" />
    <glyph glyph-name="quoteright" unicode="&#x2019;" horiz-adv-x="186" 
d="M34 571l57 126c7 15 18 21 34 21c23 0 35 -17 35 -31c0 -9 -3 -19 -8 -30l-57 -126c-7 -15 -18 -21 -34 -21c-23 0 -35 17 -35 31c0 9 3 19 8 30z" />
    <glyph glyph-name="parenleft" unicode="(" horiz-adv-x="204" 
d="M109 330c0 -94 4 -189 24 -284c15 -70 29 -83 28 -102c-1 -15 -11 -24 -29 -24c-23 0 -35 21 -48 64c-30 108 -41 234 -41 346s11 238 41 346c13 43 25 64 48 64c18 0 28 -9 29 -24c1 -19 -13 -32 -28 -102c-20 -95 -24 -190 -24 -284z" />
    <glyph glyph-name="parenright" unicode=")" horiz-adv-x="204" 
d="M95 330c0 94 -4 189 -24 284c-15 70 -29 83 -28 102c1 15 11 24 29 24c23 0 35 -21 48 -64c30 -108 41 -234 41 -346s-11 -238 -41 -346c-13 -43 -25 -64 -48 -64c-18 0 -28 9 -29 24c-1 19 13 32 28 102c20 95 24 190 24 284z" />
    <glyph glyph-name="asterisk" unicode="*" horiz-adv-x="388" 
d="M160 540l-91 41c-19 9 -29 19 -29 30c0 20 11 29 31 29c8 0 19 -5 33 -15l74 -56l-8 56c-6 42 -6 50 -6 60c0 19 11 33 30 33s30 -14 30 -33c0 -10 0 -18 -6 -60l-8 -56l74 56c14 10 25 15 33 15c20 0 31 -9 31 -29c0 -11 -10 -21 -29 -30l-91 -41l91 -41
c19 -9 29 -19 29 -30c0 -20 -11 -29 -31 -29c-8 0 -19 5 -33 15l-74 56l8 -56c6 -42 6 -50 6 -60c0 -19 -11 -33 -30 -33s-30 14 -30 33c0 10 0 18 6 60l8 56l-74 -56c-14 -10 -25 -15 -33 -15c-20 0 -31 9 -31 29c0 11 10 21 29 30z" />
    <glyph glyph-name="plus" unicode="+" horiz-adv-x="600" 
d="M267 286v182c0 23 15 38 33 38s33 -15 33 -38v-182h182c23 0 38 -15 38 -33s-15 -33 -38 -33h-182v-182c0 -23 -15 -38 -33 -38s-33 15 -33 38v182h-182c-23 0 -38 15 -38 33s15 33 38 33h182z" />
    <glyph glyph-name="comma" unicode="," horiz-adv-x="240" 
d="M40 -61l57 126c7 15 18 21 34 21c23 0 35 -17 35 -31c0 -9 -3 -19 -8 -30l-57 -126c-7 -15 -18 -21 -34 -21c-23 0 -35 17 -35 31c0 9 3 19 8 30z" />
    <glyph glyph-name="hyphen" unicode="-" horiz-adv-x="352" 
d="M79 299h194c23 0 38 -15 38 -33s-15 -33 -38 -33h-194c-23 0 -38 15 -38 33s15 33 38 33z" />
    <glyph glyph-name="period" unicode="." horiz-adv-x="240" 
d="M74 40c0 25 21 46 46 46s46 -21 46 -46s-21 -46 -46 -46s-46 21 -46 46z" />
    <glyph glyph-name="slash" unicode="/" horiz-adv-x="407" 
d="M47 47l255 645c7 17 15 26 34 26s31 -11 31 -26c0 -7 -3 -17 -7 -27l-255 -645c-7 -17 -15 -26 -34 -26s-31 11 -31 26c0 7 3 17 7 27z" />
    <glyph glyph-name="zero" unicode="0" 
d="M268 -6c-100 0 -227 91 -227 362s127 362 227 362s227 -91 227 -362s-127 -362 -227 -362zM268 652c-101 0 -149 -126 -149 -296s48 -296 149 -296s149 126 149 296s-48 296 -149 296z" />
    <glyph glyph-name="one" unicode="1" horiz-adv-x="352" 
d="M176 646h-91c-23 0 -38 15 -38 33s15 33 38 33h125c23 0 38 -15 38 -33v-639c0 -30 -13 -46 -36 -46s-36 16 -36 46v606z" />
    <glyph glyph-name="two" unicode="2" 
d="M165 66h274c23 0 38 -15 38 -33s-15 -33 -38 -33h-333c-28 0 -38 14 -38 28c0 12 4 23 19 44l231 319c43 59 61 107 61 139c0 88 -44 122 -114 122c-85 0 -134 -57 -134 -164c0 -24 -15 -36 -35 -36c-23 0 -37 12 -37 48c0 122 84 218 209 218c113 0 189 -68 189 -182
c0 -48 -18 -96 -68 -164z" />
    <glyph glyph-name="three" unicode="3" 
d="M351 535c0 40 -21 117 -101 117c-62 0 -98 -40 -98 -112c0 -20 -16 -36 -36 -36s-36 16 -36 36c0 94 68 178 170 178c104 0 179 -76 179 -179c0 -70 -31 -126 -81 -159c70 -23 120 -90 120 -169c0 -125 -94 -217 -218 -217c-129 0 -199 106 -199 156c0 27 18 40 33 40
c9 0 26 -3 33 -25c7 -21 37 -105 133 -105c85 0 140 61 140 138c0 102 -65 128 -101 134c-69 11 -71 23 -71 40s9 30 42 35c57 8 91 54 91 128z" />
    <glyph glyph-name="four" unicode="4" 
d="M355 40v151h-286c-28 0 -37 11 -37 28c0 13 10 33 27 60l237 394c14 24 37 45 72 45c37 0 59 -23 59 -59v-402h39c23 0 38 -15 38 -33s-15 -33 -38 -33h-39v-151c0 -30 -13 -46 -36 -46s-36 16 -36 46zM355 257v401h-2l-230 -401h232z" />
    <glyph glyph-name="five" unicode="5" 
d="M123 431l37 235c5 29 13 46 43 46h214c23 0 38 -15 38 -33s-15 -33 -38 -33h-189l-32 -206c24 12 51 17 78 17c105 0 194 -90 194 -211c0 -153 -92 -252 -221 -252c-114 0 -197 79 -197 109c0 12 11 36 35 36c30 0 55 -79 161 -79c90 0 144 78 144 177
c0 93 -54 154 -141 154c-51 0 -72 -30 -104 -30c-13 0 -27 11 -27 27c0 11 2 22 5 43z" />
    <glyph glyph-name="six" unicode="6" 
d="M271 -6c-156 0 -210 141 -210 237c0 189 112 360 238 477c14 13 25 20 38 20c18 0 32 -15 32 -38c0 -32 -91 -59 -191 -259h2c28 18 67 28 103 28c118 0 192 -89 192 -228c0 -110 -63 -237 -204 -237zM265 60c72 0 132 55 132 165c0 104 -51 174 -130 174
c-86 0 -128 -62 -128 -174c0 -81 39 -165 126 -165z" />
    <glyph glyph-name="seven" unicode="7" horiz-adv-x="481" 
d="M440 646l-265 -626c-10 -24 -25 -26 -37 -26c-19 0 -33 12 -33 28c0 8 3 18 12 38l248 586h-298c-23 0 -38 15 -38 33s15 33 38 33h350c24 0 35 -8 35 -22c0 -12 -6 -30 -12 -44z" />
    <glyph glyph-name="eight" unicode="8" 
d="M268 364c-84 0 -129 -72 -129 -148c0 -72 43 -156 129 -156s129 84 129 156c0 76 -45 148 -129 148zM268 -6c-134 0 -207 103 -207 216c0 89 46 163 122 183v2c-54 33 -94 89 -94 158c0 86 75 165 179 165s179 -79 179 -165c0 -69 -40 -125 -94 -158v-2
c76 -20 122 -94 122 -183c0 -113 -73 -216 -207 -216zM268 430c73 0 107 51 107 114c0 61 -45 108 -107 108c-65 0 -107 -47 -107 -106c0 -65 34 -116 107 -116z" />
    <glyph glyph-name="nine" unicode="9" 
d="M265 718c156 0 210 -141 210 -237c0 -189 -112 -360 -238 -477c-14 -13 -25 -20 -38 -20c-18 0 -32 15 -32 38c0 32 91 59 191 259h-2c-28 -18 -67 -28 -103 -28c-118 0 -192 89 -192 228c0 110 63 237 204 237zM271 652c-72 0 -132 -55 -132 -165
c0 -104 51 -174 130 -174c86 0 128 62 128 174c0 81 -39 165 -126 165z" />
    <glyph glyph-name="colon" unicode=":" horiz-adv-x="240" 
d="M74 378c0 25 21 46 46 46s46 -21 46 -46s-21 -46 -46 -46s-46 21 -46 46zM74 40c0 25 21 46 46 46s46 -21 46 -46s-21 -46 -46 -46s-46 21 -46 46z" />
    <glyph glyph-name="semicolon" unicode=";" horiz-adv-x="240" 
d="M40 -61l57 126c7 15 18 21 34 21c23 0 35 -17 35 -31c0 -9 -3 -19 -8 -30l-57 -126c-7 -15 -18 -21 -34 -21c-23 0 -35 17 -35 31c0 9 3 19 8 30zM166 378c0 -24 -22 -46 -46 -46s-46 22 -46 46s22 46 46 46s46 -22 46 -46z" />
    <glyph glyph-name="less" unicode="&#x3c;" horiz-adv-x="600" 
d="M138 253l394 -192c22 -11 31 -19 31 -36c0 -19 -12 -31 -29 -31c-10 0 -19 3 -31 9l-439 215c-23 11 -27 24 -27 35s4 24 27 35l439 215c12 6 21 9 31 9c17 0 29 -12 29 -25c0 -21 -13 -33 -34 -43z" />
    <glyph glyph-name="equal" unicode="=" horiz-adv-x="600" 
d="M85 386h430c23 0 38 -15 38 -33s-15 -33 -38 -33h-430c-23 0 -38 15 -38 33s15 33 38 33zM85 186h430c23 0 38 -15 38 -33s-15 -33 -38 -33h-430c-23 0 -38 15 -38 33s15 33 38 33z" />
    <glyph glyph-name="greater" unicode="&#x3e;" horiz-adv-x="600" 
d="M462 253l-391 191c-21 10 -34 22 -34 43c0 13 12 25 29 25c10 0 19 -3 31 -9l439 -215c23 -11 27 -24 27 -35s-4 -24 -27 -35l-439 -215c-12 -6 -21 -9 -31 -9c-17 0 -29 12 -29 31c0 17 9 25 31 36z" />
    <glyph glyph-name="question" unicode="?" horiz-adv-x="444" 
d="M175 246v127c0 26 4 35 39 42c85 17 125 63 125 125c0 75 -65 112 -121 112c-52 0 -108 -27 -119 -79c-7 -33 -16 -41 -39 -41s-33 18 -33 38c0 88 90 148 191 148c117 0 199 -72 199 -176c0 -122 -81 -168 -170 -190v-106c0 -30 -13 -46 -36 -46s-36 16 -36 46zM165 40
c0 25 21 46 46 46s46 -21 46 -46s-21 -46 -46 -46s-46 21 -46 46z" />
    <glyph glyph-name="at" unicode="@" horiz-adv-x="800" 
d="M262 297c0 -54 29 -92 81 -92c89 0 156 139 156 206c0 55 -25 89 -81 89c-90 0 -156 -118 -156 -203zM530 488l13 34c8 21 21 26 35 26c17 0 29 -9 29 -23c0 -5 -1 -9 -6 -24l-72 -229c-5 -16 -10 -34 -10 -49c0 -18 10 -30 27 -30c80 0 156 119 156 222
c0 154 -130 249 -290 249c-181 0 -314 -140 -314 -311c0 -172 142 -305 306 -305c203 0 250 117 285 117c15 0 22 -10 22 -22c0 -32 -126 -149 -303 -149c-205 0 -370 161 -370 364c0 200 170 360 373 360c196 0 351 -123 351 -298c0 -167 -151 -281 -235 -281
c-45 0 -72 21 -80 63h-2c-25 -31 -56 -63 -121 -63c-91 0 -140 69 -140 153c0 132 93 274 228 274c46 0 94 -24 118 -78z" />
    <glyph glyph-name="A" unicode="A" horiz-adv-x="612" 
d="M133 155l-47 -128c-9 -18 -15 -33 -40 -33c-21 0 -32 13 -32 28c0 8 3 20 7 30l229 614c9 23 20 52 56 52s47 -29 56 -52l229 -614c4 -10 7 -22 7 -30c0 -15 -11 -28 -32 -28c-25 0 -33 15 -40 33l-47 128h-346zM455 221l-148 403h-2l-148 -403h298z" />
    <glyph glyph-name="B" unicode="B" horiz-adv-x="537" 
d="M66 38v636c0 25 12 38 44 38h129c155 0 206 -98 206 -178c0 -84 -40 -124 -101 -149v-2c98 -16 156 -78 156 -179c0 -107 -69 -204 -226 -204h-164c-32 0 -44 13 -44 38zM138 646v-239h105c74 0 130 52 130 124c0 58 -44 115 -128 115h-107zM138 347v-281h128
c101 0 162 48 162 140c0 83 -65 141 -163 141h-127z" />
    <glyph glyph-name="C" unicode="C" horiz-adv-x="593" 
d="M350 718c120 0 216 -72 216 -107c0 -25 -17 -38 -32 -38c-30 0 -67 79 -185 79c-150 0 -231 -161 -231 -306c0 -147 72 -286 244 -286c125 0 163 70 189 70c18 0 30 -11 30 -36c0 -31 -92 -100 -223 -100c-218 0 -318 162 -318 352c0 187 100 372 310 372z" />
    <glyph glyph-name="D" unicode="D" horiz-adv-x="630" 
d="M66 38v636c0 25 12 38 44 38h178c216 0 302 -195 302 -361c0 -219 -135 -351 -308 -351h-172c-32 0 -44 13 -44 38zM138 646v-580h140c173 0 234 131 234 298c0 136 -60 282 -230 282h-144z" />
    <glyph glyph-name="E" unicode="E" horiz-adv-x="444" 
d="M138 322v-256h218c23 0 38 -15 38 -33s-15 -33 -38 -33h-246c-32 0 -44 13 -44 38v636c0 25 12 38 44 38h236c23 0 38 -15 38 -33s-15 -33 -38 -33h-207v-258h198c23 0 38 -15 38 -33s-15 -33 -38 -33h-199z" />
    <glyph glyph-name="F" unicode="F" horiz-adv-x="407" 
d="M138 322v-282c0 -30 -13 -46 -36 -46s-36 16 -36 46v636c0 20 16 35 36 36h253c23 0 38 -15 38 -33s-15 -33 -38 -33h-217v-258h192c23 0 38 -15 38 -33s-15 -33 -38 -33h-192z" />
    <glyph glyph-name="G" unicode="G" horiz-adv-x="667" 
d="M444 401h137c50 0 61 -26 61 -55c0 -276 -134 -352 -290 -352c-222 0 -312 179 -312 362c0 177 100 362 310 362c140 0 243 -79 243 -109c0 -26 -17 -38 -35 -38c-33 0 -82 81 -204 81c-166 0 -236 -159 -236 -296c0 -161 77 -296 240 -296c155 0 212 132 212 275h-126
c-23 0 -38 15 -38 33s15 33 38 33z" />
    <glyph glyph-name="H" unicode="H" horiz-adv-x="667" 
d="M138 332v-292c0 -30 -13 -46 -36 -46s-36 16 -36 46v632c0 30 13 46 36 46s36 -16 36 -46v-274h391v274c0 30 13 46 36 46s36 -16 36 -46v-632c0 -30 -13 -46 -36 -46s-36 16 -36 46v292h-391z" />
    <glyph glyph-name="I" unicode="I" horiz-adv-x="204" 
d="M138 672v-632c0 -30 -13 -46 -36 -46s-36 16 -36 46v632c0 30 13 46 36 46s36 -16 36 -46z" />
    <glyph glyph-name="J" unicode="J" horiz-adv-x="352" 
d="M286 672v-508c0 -104 -61 -170 -157 -170c-84 0 -146 44 -146 71c0 20 12 32 28 32c26 0 41 -43 115 -43c71 0 88 49 88 110v508c0 30 13 46 36 46s36 -16 36 -46z" />
    <glyph glyph-name="K" unicode="K" horiz-adv-x="556" 
d="M138 345v-305c0 -30 -13 -46 -36 -46s-36 16 -36 46v632c0 30 13 46 36 46s36 -16 36 -46v-265l319 287c16 15 28 24 44 24c21 0 31 -16 31 -30c0 -11 -2 -19 -16 -31l-312 -280l336 -320c11 -10 16 -23 16 -32c0 -16 -12 -31 -32 -31c-16 0 -29 10 -43 24z" />
    <glyph glyph-name="L" unicode="L" horiz-adv-x="370" 
d="M138 672v-606h188c23 0 38 -15 38 -33s-15 -33 -38 -33h-224c-20 0 -36 16 -36 36v636c0 30 13 46 36 46s36 -16 36 -46z" />
    <glyph glyph-name="M" unicode="M" horiz-adv-x="834" 
d="M417 119l162 552c9 30 24 47 53 47c32 0 66 -10 73 -56l85 -570c3 -18 10 -56 10 -65c0 -27 -19 -33 -34 -33c-26 0 -34 17 -38 43l-89 603h-2l-178 -598c-11 -36 -21 -48 -43 -48c-21 0 -29 15 -36 37l-183 607h-2l-89 -601c-4 -26 -12 -43 -38 -43c-15 0 -34 6 -34 33
c0 9 7 47 10 65l85 570c7 46 41 56 73 56c29 0 46 -17 55 -47l158 -552h2z" />
    <glyph glyph-name="N" unicode="N" horiz-adv-x="666" 
d="M138 586v-546c0 -30 -13 -46 -36 -46s-36 16 -36 46v636c0 28 16 42 36 42s32 -12 42 -26l382 -559h2v539c0 30 13 46 36 46s36 -16 36 -46v-634c0 -34 -14 -44 -34 -44c-19 0 -27 9 -39 26l-387 566h-2z" />
    <glyph glyph-name="O" unicode="O" horiz-adv-x="684" 
d="M40 356c0 181 101 362 302 362s302 -181 302 -362s-101 -362 -302 -362s-302 181 -302 362zM342 60c167 0 224 162 224 296s-57 296 -224 296s-224 -162 -224 -296s57 -296 224 -296z" />
    <glyph glyph-name="P" unicode="P" horiz-adv-x="519" 
d="M138 272v-232c0 -30 -13 -46 -36 -46s-36 16 -36 46v634c0 24 11 38 45 38h171c162 0 220 -126 220 -214c0 -118 -74 -226 -238 -226h-126zM138 646v-308h132c114 0 160 82 160 154s-46 154 -160 154h-132z" />
    <glyph glyph-name="Q" unicode="Q" horiz-adv-x="684" 
d="M585 130l74 -77c11 -11 15 -22 15 -32c0 -15 -16 -27 -31 -27c-12 0 -20 4 -31 16l-66 70c-49 -53 -117 -86 -204 -86c-201 0 -302 181 -302 362s101 362 302 362s302 -181 302 -362c0 -82 -19 -161 -59 -226zM500 128l-65 68c-9 10 -14 18 -14 27c0 16 14 29 34 29
c8 0 19 -3 30 -15l49 -52c23 51 32 112 32 171c0 140 -57 302 -224 302s-224 -162 -224 -302s57 -302 224 -302c72 0 124 30 158 74z" />
    <glyph glyph-name="R" unicode="R" horiz-adv-x="519" 
d="M138 316v-276c0 -30 -13 -46 -36 -46s-36 16 -36 46v634c0 24 11 38 45 38h157c140 0 215 -94 215 -193c0 -114 -76 -201 -190 -201h-66l246 -263c11 -11 14 -17 14 -31c0 -18 -16 -30 -32 -30c-12 0 -21 4 -32 16zM138 646v-268h125c94 0 148 44 148 128
c0 93 -51 140 -148 140h-125z" />
    <glyph glyph-name="S" unicode="S" horiz-adv-x="462" 
d="M216 -6c-118 0 -196 46 -196 85c0 19 15 35 34 35c8 0 26 -10 34 -17s67 -37 118 -37c100 0 164 80 164 155c0 171 -338 105 -338 321c0 115 98 179 206 182c78 0 162 -44 162 -78c0 -22 -17 -38 -30 -38c-37 0 -61 50 -137 50c-75 0 -129 -52 -129 -111
c0 -157 338 -93 338 -321c0 -129 -89 -226 -226 -226z" />
    <glyph glyph-name="T" unicode="T" horiz-adv-x="426" 
d="M249 646v-606c0 -30 -13 -46 -36 -46s-36 16 -36 46v606h-138c-23 0 -38 15 -38 33s15 33 38 33h348c23 0 38 -15 38 -33s-15 -33 -38 -33h-138z" />
    <glyph glyph-name="U" unicode="U" horiz-adv-x="666" 
d="M66 242v430c0 30 13 46 36 46s36 -16 36 -46v-421c0 -131 95 -191 195 -191s195 60 195 191v421c0 30 13 46 36 46s36 -16 36 -46v-430c0 -164 -129 -248 -267 -248s-267 84 -267 248z" />
    <glyph glyph-name="V" unicode="V" horiz-adv-x="556" 
d="M279 113l196 575c6 19 17 30 35 30c22 0 36 -14 36 -34c0 -8 -4 -23 -14 -50l-211 -596c-7 -20 -18 -44 -43 -44s-36 24 -43 44l-211 596c-10 27 -14 42 -14 50c0 20 14 34 36 34c18 0 29 -11 35 -30l196 -575h2z" />
    <glyph glyph-name="W" unicode="W" horiz-adv-x="816" 
d="M198 78l172 606c5 17 14 34 38 34s33 -17 38 -34l172 -606h2l96 604c5 29 22 36 39 36c18 0 33 -10 33 -30c0 -8 -5 -37 -12 -74l-105 -580c-5 -27 -30 -40 -53 -40c-26 0 -46 11 -54 40l-155 571h-2l-159 -571c-8 -29 -28 -40 -54 -40c-23 0 -48 13 -53 40l-101 580
c-11 58 -12 66 -12 74c0 20 15 30 33 30c17 0 34 -7 39 -36l96 -604h2z" />
    <glyph glyph-name="X" unicode="X" horiz-adv-x="594" 
d="M297 439l174 253c12 18 20 26 38 26s34 -13 34 -28c0 -10 -4 -18 -14 -33l-192 -275l231 -327c10 -15 14 -23 14 -33c0 -15 -16 -28 -34 -28s-26 8 -38 26l-213 304l-213 -304c-12 -18 -20 -26 -38 -26s-34 13 -34 28c0 10 4 18 14 33l231 327l-192 275
c-10 15 -14 23 -14 33c0 15 16 28 34 28s26 -8 38 -26z" />
    <glyph glyph-name="Y" unicode="Y" horiz-adv-x="482" 
d="M241 407l174 290c9 16 20 21 36 21c20 0 30 -13 30 -28c0 -9 -4 -20 -22 -50l-182 -303v-297c0 -30 -13 -46 -36 -46s-36 16 -36 46v297l-182 303c-18 30 -22 41 -22 50c0 15 10 28 30 28c16 0 27 -5 36 -21z" />
    <glyph glyph-name="Z" unicode="Z" horiz-adv-x="556" 
d="M118 66h372c23 0 38 -15 38 -33s-15 -33 -38 -33h-402c-41 0 -60 17 -60 40c0 14 9 31 29 62l357 544h-334c-23 0 -38 15 -38 33s15 33 38 33h401c25 0 34 -14 34 -27c0 -11 -5 -23 -14 -36z" />
    <glyph glyph-name="bracketleft" unicode="[" horiz-adv-x="222" 
d="M74 -22v704c0 20 16 36 36 36h68c24 0 31 -18 31 -30s-7 -30 -31 -30h-32v-656h32c24 0 31 -18 31 -30s-7 -30 -31 -30h-68c-20 0 -36 16 -36 36z" />
    <glyph glyph-name="backslash" unicode="\" horiz-adv-x="407" 
d="M105 692l255 -645c4 -10 7 -20 7 -27c0 -15 -12 -26 -31 -26s-27 9 -34 26l-255 645c-4 10 -7 20 -7 27c0 15 12 26 31 26s27 -9 34 -26z" />
    <glyph glyph-name="bracketright" unicode="]" horiz-adv-x="222" 
d="M148 682v-704c0 -20 -16 -36 -36 -36h-68c-24 0 -31 18 -31 30s7 30 31 30h32v656h-32c-24 0 -31 18 -31 30s7 30 31 30h68c20 0 36 -16 36 -36z" />
    <glyph glyph-name="asciicircum" unicode="^" horiz-adv-x="600" 
d="M57 316l211 380c10 19 20 22 32 22s22 -3 32 -22l211 -380c7 -12 9 -20 9 -28c0 -19 -18 -26 -33 -26c-20 1 -29 13 -41 35l-178 323l-178 -323c-12 -22 -21 -34 -41 -35c-15 0 -33 7 -33 26c0 8 2 16 9 28z" />
    <glyph glyph-name="underscore" unicode="_" horiz-adv-x="500" 
d="M500 -125h-500c-16 0 -29 9 -29 25s13 25 29 25h500c16 0 29 -9 29 -25s-13 -25 -29 -25z" />
    <glyph glyph-name="quoteleft" unicode="&#x2018;" horiz-adv-x="186" 
d="M34 571l57 126c7 15 18 21 34 21c23 0 35 -17 35 -31c0 -9 -3 -19 -8 -30l-57 -126c-7 -15 -18 -21 -34 -21c-23 0 -35 17 -35 31c0 9 3 19 8 30z" />
    <glyph glyph-name="a" unicode="a" horiz-adv-x="556" 
d="M418 459v33c0 30 13 46 36 46s36 -16 36 -46v-452c0 -30 -13 -46 -36 -46s-36 16 -36 46v33h-3c-32 -52 -85 -79 -147 -79c-153 0 -229 122 -229 272c0 134 73 272 227 272c62 0 108 -26 149 -79h3zM117 266c0 -97 39 -212 151 -212s150 115 150 212s-38 212 -150 212
c-109 0 -151 -115 -151 -212z" />
    <glyph glyph-name="b" unicode="b" horiz-adv-x="556" 
d="M66 40v686c0 30 13 46 36 46s36 -16 36 -46v-267h3c41 53 87 79 149 79c154 0 227 -138 227 -272c0 -150 -76 -272 -229 -272c-62 0 -115 27 -147 79h-3v-33c0 -30 -13 -46 -36 -46s-36 16 -36 46zM137 266c0 -97 39 -212 151 -212s151 115 151 212s-39 212 -151 212
s-151 -115 -151 -212z" />
    <glyph glyph-name="c" unicode="c" horiz-adv-x="444" 
d="M268 60c65 0 88 28 108 28c13 0 30 -12 30 -29c0 -44 -67 -65 -138 -65c-150 0 -229 138 -229 272s87 272 238 272c68 0 132 -26 132 -56c0 -23 -12 -40 -40 -40c-19 0 -36 30 -101 30c-102 0 -151 -115 -151 -200c0 -112 57 -212 151 -212z" />
    <glyph glyph-name="d" unicode="d" horiz-adv-x="556" 
d="M418 459v267c0 30 13 46 36 46s36 -16 36 -46v-686c0 -30 -13 -46 -36 -46s-36 16 -36 46v33h-3c-32 -52 -85 -79 -147 -79c-153 0 -229 122 -229 272c0 134 73 272 227 272c62 0 108 -26 149 -79h3zM117 266c0 -97 39 -212 151 -212s150 115 150 212s-38 212 -150 212
c-109 0 -151 -115 -151 -212z" />
    <glyph glyph-name="e" unicode="e" horiz-adv-x="519" 
d="M446 234h-329c3 -93 66 -180 158 -180c114 0 144 82 178 82c20 0 34 -7 34 -35c0 -32 -83 -107 -207 -107c-170 0 -241 138 -241 272s79 272 229 272s227 -126 227 -260c0 -19 -6 -44 -49 -44zM117 294h300c-3 89 -53 184 -150 184s-147 -95 -150 -184z" />
    <glyph glyph-name="f" unicode="f" horiz-adv-x="241" 
d="M156 472v-432c0 -30 -13 -46 -36 -46s-36 16 -36 46v432h-47c-24 0 -31 18 -31 30s7 30 31 30h47v137c0 72 42 103 95 103h37c34 0 49 -15 49 -33s-9 -33 -38 -33h-33c-23 0 -38 -15 -38 -33v-141h64c24 0 31 -18 31 -30s-7 -30 -31 -30h-64z" />
    <glyph glyph-name="g" unicode="g" horiz-adv-x="556" 
d="M418 460v32c0 30 13 46 36 46s36 -16 36 -46v-467c0 -165 -115 -241 -232 -241c-106 0 -204 60 -204 96c0 21 11 37 36 37c29 0 77 -67 161 -67c85 0 167 49 167 169v56h-2c-31 -54 -84 -81 -148 -81c-153 0 -229 122 -229 272c0 134 73 272 227 272
c63 0 120 -35 150 -78h2zM117 266c0 -97 39 -212 151 -212c97 0 151 87 151 161v102c0 75 -54 161 -151 161c-112 0 -151 -115 -151 -212z" />
    <glyph glyph-name="h" unicode="h" 
d="M138 333v-293c0 -30 -13 -46 -36 -46s-36 16 -36 46v686c0 30 13 46 36 46s36 -16 36 -46v-260h2c27 39 71 72 139 72c94 0 191 -63 191 -190v-308c0 -30 -13 -46 -36 -46s-36 16 -36 46v310c0 74 -50 122 -130 122c-67 0 -130 -48 -130 -139z" />
    <glyph glyph-name="i" unicode="i" horiz-adv-x="204" 
d="M138 492v-452c0 -30 -13 -46 -36 -46s-36 16 -36 46v452c0 30 13 46 36 46s36 -16 36 -46zM53 669c0 27 22 49 49 49s49 -22 49 -49s-22 -49 -49 -49s-49 22 -49 49z" />
    <glyph glyph-name="j" unicode="j" horiz-adv-x="204" 
d="M138 491v-661c0 -30 -13 -46 -36 -46s-36 16 -36 46v661c0 31 13 47 36 47s36 -16 36 -47zM53 669c0 27 22 49 49 49s49 -22 49 -49s-22 -49 -49 -49s-49 22 -49 49z" />
    <glyph glyph-name="k" unicode="k" horiz-adv-x="444" 
d="M138 254v-214c0 -30 -13 -46 -36 -46s-36 16 -36 46v686c0 30 13 46 36 46s36 -16 36 -46v-382l215 174c18 15 27 20 37 20c16 0 30 -14 30 -31s-7 -26 -21 -37l-216 -167l239 -233c19 -18 27 -30 27 -46c0 -17 -14 -30 -29 -30c-22 0 -35 11 -64 40z" />
    <glyph glyph-name="l" unicode="l" horiz-adv-x="204" 
d="M138 726v-686c0 -30 -13 -46 -36 -46s-36 16 -36 46v686c0 30 13 46 36 46s36 -16 36 -46z" />
    <glyph glyph-name="m" unicode="m" horiz-adv-x="832" 
d="M452 333v-293c0 -30 -13 -46 -36 -46s-36 16 -36 46v293c0 117 -64 139 -120 139c-58 0 -122 -48 -122 -139v-293c0 -30 -13 -46 -36 -46s-36 16 -36 46v452c0 30 13 46 36 46s36 -16 36 -46v-26h2c27 39 71 72 139 72c62 0 116 -35 140 -93c36 61 99 93 156 93
c94 0 191 -63 191 -190v-308c0 -30 -13 -46 -36 -46s-36 16 -36 46v293c0 117 -64 139 -120 139c-58 0 -122 -48 -122 -139z" />
    <glyph glyph-name="n" unicode="n" 
d="M138 333v-293c0 -30 -13 -46 -36 -46s-36 16 -36 46v452c0 30 13 46 36 46s36 -16 36 -46v-26h2c27 39 71 72 139 72c94 0 191 -63 191 -190v-308c0 -30 -13 -46 -36 -46s-36 16 -36 46v310c0 74 -50 122 -130 122c-67 0 -130 -48 -130 -139z" />
    <glyph glyph-name="o" unicode="o" 
d="M117 266c0 -97 39 -212 151 -212s151 115 151 212s-39 212 -151 212s-151 -115 -151 -212zM497 266c0 -150 -76 -272 -229 -272s-229 122 -229 272c0 134 73 272 229 272c157 0 229 -138 229 -272z" />
    <glyph glyph-name="p" unicode="p" horiz-adv-x="556" 
d="M66 -170v662c0 30 13 46 36 46s36 -16 36 -46v-33h3c32 52 85 79 147 79c153 0 229 -122 229 -272c0 -134 -73 -272 -227 -272c-62 0 -108 26 -149 79h-3v-243c0 -30 -13 -46 -36 -46s-36 16 -36 46zM137 266c0 -97 39 -212 151 -212s151 115 151 212s-39 212 -151 212
s-151 -115 -151 -212z" />
    <glyph glyph-name="q" unicode="q" horiz-adv-x="556" 
d="M39 266c0 150 76 272 229 272c62 0 115 -27 147 -79h3v33c0 30 13 46 36 46s36 -16 36 -46v-662c0 -30 -13 -46 -36 -46s-36 16 -36 46v243h-3c-41 -53 -87 -79 -149 -79c-154 0 -227 138 -227 272zM419 266c0 97 -39 212 -151 212s-151 -115 -151 -212s39 -212 151 -212
s151 115 151 212z" />
    <glyph glyph-name="r" unicode="r" horiz-adv-x="315" 
d="M138 299v-259c0 -30 -13 -46 -36 -46s-36 16 -36 46v452c0 30 13 46 36 46s36 -16 36 -46v-50h2c26 59 72 96 117 96c34 0 48 -19 48 -39s-14 -31 -49 -39c-40 -9 -118 -43 -118 -161z" />
    <glyph glyph-name="s" unicode="s" horiz-adv-x="444" 
d="M211 538c104 0 190 -44 188 -82c0 -16 -6 -35 -36 -35c-28 0 -65 57 -137 57c-50 0 -104 -24 -104 -75c0 -24 13 -49 49 -63l109 -44c72 -29 133 -64 133 -148c0 -94 -84 -154 -196 -154c-116 0 -192 67 -192 101c0 11 16 35 34 35c34 0 67 -76 161 -76
c69 0 115 41 115 91c0 47 -35 66 -74 82l-124 51c-54 22 -93 54 -93 120c0 87 86 140 167 140z" />
    <glyph glyph-name="t" unicode="t" horiz-adv-x="240" 
d="M156 472v-432c0 -30 -13 -46 -36 -46s-36 16 -36 46v432h-47c-24 0 -31 18 -31 30s7 30 31 30h47v117c0 31 13 47 36 47s36 -16 36 -47v-117h47c24 0 31 -18 31 -30s-7 -30 -31 -30h-47z" />
    <glyph glyph-name="u" unicode="u" 
d="M66 175v317c0 30 13 46 36 46s36 -16 36 -46v-299c0 -91 49 -139 130 -139s130 48 130 139v299c0 30 13 46 36 46s36 -16 36 -46v-317c0 -115 -88 -181 -202 -181s-202 66 -202 181z" />
    <glyph glyph-name="v" unicode="v" horiz-adv-x="426" 
d="M214 119l129 386c7 21 18 33 38 33s33 -16 33 -33c0 -6 -1 -13 -4 -21l-160 -463c-7 -21 -24 -27 -37 -27s-30 6 -37 27l-160 463c-3 8 -4 15 -4 21c0 17 13 33 33 33s31 -12 38 -33l129 -386h2z" />
    <glyph glyph-name="w" unicode="w" horiz-adv-x="740" 
d="M206 110l123 395c7 22 21 33 41 33s34 -11 41 -33l123 -395h2l124 395c7 21 18 33 40 33c21 0 34 -16 34 -33c0 -6 -2 -14 -6 -27l-152 -452c-10 -29 -31 -32 -40 -32c-19 0 -33 9 -44 45l-121 387h-2l-125 -400c-8 -26 -26 -32 -40 -32c-12 0 -33 10 -40 32l-152 452
c-4 13 -6 21 -6 27c0 17 13 33 34 33c22 0 33 -12 40 -33l124 -395h2z" />
    <glyph glyph-name="x" unicode="x" horiz-adv-x="462" 
d="M231 230l-150 -211c-13 -18 -24 -25 -39 -25c-18 0 -32 15 -32 33c0 9 2 16 13 30l166 227l-144 191c-11 14 -13 21 -13 30c0 18 14 33 32 33c15 0 26 -7 39 -25l128 -175l128 175c13 18 24 25 39 25c18 0 32 -15 32 -33c0 -9 -2 -16 -13 -30l-144 -191l166 -227
c11 -14 13 -21 13 -30c0 -18 -14 -33 -32 -33c-15 0 -26 7 -39 25z" />
    <glyph glyph-name="y" unicode="y" horiz-adv-x="426" 
d="M179 14l-163 470c-3 8 -4 15 -4 21c0 17 13 33 33 33s31 -12 38 -33l129 -386h2l129 386c7 21 18 33 38 33s33 -16 33 -33c0 -6 -1 -13 -4 -21l-230 -664c-8 -24 -19 -36 -39 -36c-22 0 -33 16 -33 30c0 9 2 19 6 29z" />
    <glyph glyph-name="z" unicode="z" horiz-adv-x="444" 
d="M388 461l-267 -395h258c23 0 38 -15 38 -33s-15 -33 -38 -33h-309c-36 0 -42 19 -42 29c0 17 5 26 16 42l267 395h-234c-23 0 -38 15 -38 33s15 33 38 33h287c29 0 40 -11 40 -27c0 -17 -5 -28 -16 -44z" />
    <glyph glyph-name="braceleft" unicode="{" horiz-adv-x="258" 
d="M95 493v117c0 85 39 108 98 108h29c24 0 32 -16 32 -27s-8 -27 -32 -27h-21c-32 0 -40 -40 -40 -77v-110c0 -100 -61 -140 -79 -146v-2c18 -6 79 -46 79 -146v-110c0 -37 8 -77 40 -77h21c24 0 32 -16 32 -27s-8 -27 -32 -27h-29c-59 0 -98 23 -98 108v117
c0 93 -15 136 -66 136c-13 0 -25 12 -25 27s12 27 25 27c51 0 66 43 66 136z" />
    <glyph glyph-name="bar" unicode="|" horiz-adv-x="222" 
d="M78 -250v1000c0 23 15 38 33 38s33 -15 33 -38v-1000c0 -23 -15 -38 -33 -38s-33 15 -33 38z" />
    <glyph glyph-name="braceright" unicode="}" horiz-adv-x="258" 
d="M97 477v110c0 37 -8 77 -40 77h-21c-24 0 -32 16 -32 27s8 27 32 27h29c59 0 98 -23 98 -108v-117c0 -93 15 -136 66 -136c13 0 25 -12 25 -27s-12 -27 -25 -27c-51 0 -66 -43 -66 -136v-117c0 -85 -39 -108 -98 -108h-29c-24 0 -32 16 -32 27s8 27 32 27h21
c32 0 40 40 40 77v110c0 100 61 140 79 146v2c-18 6 -79 46 -79 146z" />
    <glyph glyph-name="asciitilde" unicode="~" horiz-adv-x="600" 
d="M531 295c0 -50 -60 -110 -135 -110c-39 0 -71 19 -102 38c-30 18 -60 37 -94 37c-60 0 -55 -71 -100 -75c-16 -2 -31 9 -31 31c0 50 60 110 135 110c39 0 71 -19 102 -37s60 -38 94 -38c60 0 55 71 100 75c16 2 31 -9 31 -31z" />
    <glyph glyph-name="exclamdown" unicode="&#xa1;" horiz-adv-x="278" 
d="M185 492c0 -24 -22 -46 -46 -46s-46 22 -46 46c0 25 22 46 46 46s46 -21 46 -46zM175 284v-424c0 -30 -13 -46 -36 -46s-36 16 -36 46v424c0 30 13 46 36 46s36 -16 36 -46z" />
    <glyph glyph-name="cent" unicode="&#xa2;" horiz-adv-x="444" 
d="M235 57v421c-89 -20 -120 -126 -120 -211c0 -87 31 -190 120 -210zM235 -61v56c-130 18 -198 148 -198 270c0 124 68 255 198 273v55c0 13 7 20 18 20s18 -7 18 -20v-55c84 -1 136 -27 136 -61c0 -19 -12 -31 -32 -31c-26 0 -53 31 -104 31v-423c61 0 84 28 106 28
c18 0 27 -12 27 -29c0 -32 -76 -59 -133 -59v-55c0 -13 -7 -20 -18 -20s-18 7 -18 20z" />
    <glyph glyph-name="sterling" unicode="&#xa3;" horiz-adv-x="593" 
d="M171 66h348c23 0 38 -15 38 -33s-15 -33 -38 -33h-407c-26 0 -38 15 -38 32c0 10 2 19 21 37c47 46 99 103 99 185c0 19 -2 43 -11 75h-109c-23 0 -38 15 -38 33s15 33 38 33h88c-37 66 -55 100 -55 146c0 105 86 177 208 177c144 0 226 -114 226 -182
c0 -21 -11 -35 -32 -35c-18 0 -27 10 -32 25c-27 78 -74 126 -163 126c-69 0 -129 -35 -129 -120c0 -35 13 -67 50 -137h122c23 0 38 -15 38 -33s-15 -33 -38 -33h-102c8 -26 11 -50 11 -79c0 -61 -27 -115 -95 -184z" />
    <glyph glyph-name="fraction" unicode="&#x2044;" horiz-adv-x="166" 
d="M-72 38l260 665c6 15 14 25 31 25s28 -10 28 -23c0 -8 -3 -16 -9 -31l-260 -665c-6 -15 -14 -25 -31 -25s-28 10 -28 23c0 8 3 16 9 31z" />
    <glyph glyph-name="yen" unicode="&#xa5;" 
d="M235 30v160h-141c-24 0 -31 18 -31 30s7 30 31 30h141v76h-141c-24 0 -31 18 -31 30s7 30 31 30h111l-152 254c-18 30 -22 41 -22 50c0 15 10 28 30 28c13 0 24 -5 33 -21l174 -292l174 292c9 16 20 21 33 21c20 0 30 -13 30 -28c0 -9 -4 -20 -22 -50l-151 -254h110
c24 0 31 -18 31 -30s-7 -30 -31 -30h-141v-76h141c24 0 31 -18 31 -30s-7 -30 -31 -30h-141v-160c0 -20 -16 -36 -33 -36s-33 16 -33 36z" />
    <glyph glyph-name="florin" unicode="&#x192;" 
d="M152 488h60l20 118c22 132 83 166 145 166h41c23 0 38 -15 38 -33s-15 -33 -38 -33h-32c-34 0 -66 -18 -80 -96l-22 -122h53c23 0 41 -11 41 -30s-18 -30 -41 -30h-64l-67 -378c-29 -164 -92 -210 -165 -210h-27c-23 0 -38 15 -38 33s15 33 38 33h26c42 0 75 20 95 138
l66 384h-49c-23 0 -41 11 -41 30s18 30 41 30z" />
    <glyph glyph-name="section" unicode="&#xa7;" horiz-adv-x="556" 
d="M218 490l163 -81c75 -38 143 -82 140 -183c-1 -44 -19 -107 -113 -166c43 -29 67 -70 67 -127c0 -96 -99 -149 -206 -149c-176 0 -211 112 -211 157c0 18 21 33 40 33c24 0 35 -20 38 -45c4 -36 44 -79 132 -79c57 0 129 20 129 85c0 43 -17 59 -80 92l-149 76
c-82 42 -133 94 -133 173c0 97 57 132 129 166c-50 32 -78 67 -78 117c0 116 114 159 202 159c94 0 198 -46 198 -145c0 -31 -15 -50 -33 -50c-19 0 -36 13 -39 47c-4 42 -52 82 -130 82c-69 0 -128 -33 -126 -88c0 -20 17 -52 60 -74zM182 176l171 -88c44 21 96 78 96 137
c0 52 -24 82 -70 107l-152 78c-50 -16 -120 -54 -120 -122c0 -54 19 -83 75 -112z" />
    <glyph glyph-name="currency" unicode="&#xa4;" 
d="M39 172l32 32c-35 40 -51 96 -51 152s16 112 51 152l-32 32c-13 13 -16 20 -16 30c0 15 12 32 30 32c11 0 24 -9 33 -18l32 -32c40 34 94 52 150 52s110 -18 150 -52l32 32c9 9 22 18 33 18c18 0 30 -17 30 -32c0 -10 -3 -17 -16 -30l-32 -32c35 -40 51 -96 51 -152
s-16 -112 -51 -152l32 -32c13 -13 16 -20 16 -30c0 -15 -12 -32 -30 -32c-11 0 -24 9 -33 18l-32 32c-40 -34 -94 -52 -150 -52s-110 18 -150 52l-32 -32c-9 -9 -22 -18 -33 -18c-18 0 -30 17 -30 32c0 10 3 17 16 30zM86 356c0 -104 78 -188 182 -188s182 84 182 188
s-78 188 -182 188s-182 -84 -182 -188z" />
    <glyph glyph-name="quotesingle" unicode="'" horiz-adv-x="186" 
d="M60 548v132c0 23 15 38 33 38s33 -15 33 -38v-132c0 -23 -15 -38 -33 -38s-33 15 -33 38z" />
    <glyph glyph-name="quotedblleft" unicode="&#x201c;" horiz-adv-x="315" 
d="M34 571l57 126c7 15 18 21 34 21c23 0 35 -17 35 -31c0 -9 -3 -19 -8 -30l-57 -126c-7 -15 -18 -21 -34 -21c-23 0 -35 17 -35 31c0 9 3 19 8 30zM163 571l57 126c7 15 18 21 34 21c23 0 35 -17 35 -31c0 -9 -3 -19 -8 -30l-57 -126c-7 -15 -18 -21 -34 -21
c-23 0 -35 17 -35 31c0 9 3 19 8 30z" />
    <glyph glyph-name="guillemotleft" unicode="&#xab;" horiz-adv-x="389" 
d="M282 94l-81 143c-8 15 -11 23 -11 29s3 14 11 29l81 143c10 17 19 28 36 28c19 0 30 -14 30 -26c0 -9 -1 -14 -10 -29l-84 -145l84 -145c9 -15 10 -20 10 -29c0 -12 -11 -26 -30 -26c-17 0 -26 11 -36 28zM133 94l-81 143c-8 15 -11 23 -11 29s3 14 11 29l81 143
c10 17 19 28 36 28c19 0 30 -14 30 -26c0 -9 -1 -14 -10 -29l-84 -145l84 -145c9 -15 10 -20 10 -29c0 -12 -11 -26 -30 -26c-17 0 -26 11 -36 28z" />
    <glyph glyph-name="guilsinglleft" unicode="&#x2039;" horiz-adv-x="240" 
d="M133 94l-81 143c-8 15 -11 23 -11 29s3 14 11 29l81 143c10 17 19 28 36 28c19 0 30 -14 30 -26c0 -9 -1 -14 -10 -29l-84 -145l84 -145c9 -15 10 -20 10 -29c0 -12 -11 -26 -30 -26c-17 0 -26 11 -36 28z" />
    <glyph glyph-name="guilsinglright" unicode="&#x203a;" horiz-adv-x="240" 
d="M107 438l81 -143c8 -15 11 -23 11 -29s-3 -14 -11 -29l-81 -143c-10 -17 -19 -28 -36 -28c-19 0 -30 14 -30 26c0 9 1 14 10 29l84 145l-84 145c-9 15 -10 20 -10 29c0 12 11 26 30 26c17 0 26 -11 36 -28z" />
    <glyph glyph-name="endash" unicode="&#x2013;" horiz-adv-x="500" 
d="M469 236h-438c-24 0 -31 18 -31 30s7 30 31 30h438c24 0 31 -18 31 -30s-7 -30 -31 -30z" />
    <glyph glyph-name="dagger" unicode="&#x2020;" horiz-adv-x="610" 
d="M338 391v-561c0 -30 -13 -46 -33 -46s-33 16 -33 46v561h-199c-30 0 -46 13 -46 33s16 33 46 33h199v215c0 30 13 46 33 46s33 -16 33 -46v-215h199c30 0 46 -13 46 -33s-16 -33 -46 -33h-199z" />
    <glyph glyph-name="daggerdbl" unicode="&#x2021;" horiz-adv-x="610" 
d="M272 87v332h-207c-23 0 -38 15 -38 33s15 33 38 33h207v199c0 23 15 38 33 38s33 -15 33 -38v-199h207c23 0 38 -15 38 -33s-15 -33 -38 -33h-207v-332h207c23 0 38 -15 38 -33s-15 -33 -38 -33h-207v-199c0 -23 -15 -38 -33 -38s-33 15 -33 38v199h-207
c-23 0 -38 15 -38 33s15 33 38 33h207z" />
    <glyph glyph-name="periodcentered" unicode="&#xb7;" horiz-adv-x="240" 
d="M74 319c0 24 22 46 46 46s46 -22 46 -46s-22 -46 -46 -46s-46 22 -46 46z" />
    <glyph glyph-name="paragraph" unicode="&#xb6;" horiz-adv-x="600" 
d="M258 -178v512c-123 0 -210 82 -210 186c0 130 88 192 228 192h183c44 0 55 -9 55 -52v-838c0 -23 -15 -38 -33 -38s-33 15 -33 38v830h-124v-830c0 -23 -15 -38 -33 -38s-33 15 -33 38z" />
    <glyph glyph-name="bullet" unicode="&#x2022;" horiz-adv-x="500" 
d="M72 356c0 98 80 178 178 178s178 -80 178 -178s-80 -178 -178 -178s-178 80 -178 178z" />
    <glyph glyph-name="quotesinglbase" unicode="&#x201a;" horiz-adv-x="186" 
d="M34 -61l57 126c7 15 18 21 34 21c23 0 35 -17 35 -31c0 -9 -3 -19 -8 -30l-57 -126c-7 -15 -18 -21 -34 -21c-23 0 -35 17 -35 31c0 9 3 19 8 30z" />
    <glyph glyph-name="quotedblbase" unicode="&#x201e;" horiz-adv-x="315" 
d="M34 -61l57 126c7 15 18 21 34 21c23 0 35 -17 35 -31c0 -9 -3 -19 -8 -30l-57 -126c-7 -15 -18 -21 -34 -21c-23 0 -35 17 -35 31c0 9 3 19 8 30zM163 -61l57 126c7 15 18 21 34 21c23 0 35 -17 35 -31c0 -9 -3 -19 -8 -30l-57 -126c-7 -15 -18 -21 -34 -21
c-23 0 -35 17 -35 31c0 9 3 19 8 30z" />
    <glyph glyph-name="quotedblright" unicode="&#x201d;" horiz-adv-x="315" 
d="M34 571l57 126c7 15 18 21 34 21c23 0 35 -17 35 -31c0 -9 -3 -19 -8 -30l-57 -126c-7 -15 -18 -21 -34 -21c-23 0 -35 17 -35 31c0 9 3 19 8 30zM163 571l57 126c7 15 18 21 34 21c23 0 35 -17 35 -31c0 -9 -3 -19 -8 -30l-57 -126c-7 -15 -18 -21 -34 -21
c-23 0 -35 17 -35 31c0 9 3 19 8 30z" />
    <glyph glyph-name="guillemotright" unicode="&#xbb;" horiz-adv-x="389" 
d="M107 438l81 -143c8 -15 11 -23 11 -29s-3 -14 -11 -29l-81 -143c-10 -17 -19 -28 -36 -28c-19 0 -30 14 -30 26c0 9 1 14 10 29l84 145l-84 145c-9 15 -10 20 -10 29c0 12 11 26 30 26c17 0 26 -11 36 -28zM256 438l81 -143c8 -15 11 -23 11 -29s-3 -14 -11 -29l-81 -143
c-10 -17 -19 -28 -36 -28c-19 0 -30 14 -30 26c0 9 1 14 10 29l84 145l-84 145c-9 15 -10 20 -10 29c0 12 11 26 30 26c17 0 26 -11 36 -28z" />
    <glyph glyph-name="ellipsis" unicode="&#x2026;" horiz-adv-x="1000" 
d="M121 40c0 25 21 46 46 46s46 -21 46 -46s-21 -46 -46 -46s-46 21 -46 46zM454 40c0 25 21 46 46 46s46 -21 46 -46s-21 -46 -46 -46s-46 21 -46 46zM787 40c0 25 21 46 46 46s46 -21 46 -46s-21 -46 -46 -46s-46 21 -46 46z" />
    <glyph glyph-name="perthousand" unicode="&#x2030;" horiz-adv-x="1093" 
d="M899 -6c-82 0 -154 69 -154 169c0 108 75 177 154 177s154 -69 154 -177c0 -100 -72 -169 -154 -169zM899 42c66 0 94 64 94 121c0 74 -35 129 -94 129s-94 -55 -94 -129c0 -57 28 -121 94 -121zM194 372c-82 0 -154 69 -154 169c0 108 75 177 154 177s154 -69 154 -177
c0 -100 -72 -169 -154 -169zM194 420c66 0 94 64 94 121c0 74 -35 129 -94 129s-94 -55 -94 -129c0 -57 28 -121 94 -121zM547 -6c-82 0 -154 69 -154 169c0 108 75 177 154 177s154 -69 154 -177c0 -100 -72 -169 -154 -169zM547 42c66 0 94 64 94 121
c0 74 -35 129 -94 129s-94 -55 -94 -129c0 -57 28 -121 94 -121zM214 38l260 665c6 15 14 25 31 25s28 -10 28 -23c0 -8 -3 -16 -9 -31l-260 -665c-6 -15 -14 -25 -31 -25s-28 10 -28 23c0 8 3 16 9 31z" />
    <glyph glyph-name="questiondown" unicode="&#xbf;" horiz-adv-x="444" 
d="M269 286v-127c0 -26 -4 -35 -39 -42c-85 -17 -125 -63 -125 -125c0 -75 65 -112 121 -112c52 0 108 27 119 79c7 33 16 41 39 41s33 -18 33 -38c0 -88 -90 -148 -191 -148c-117 0 -199 72 -199 176c0 122 81 168 170 190v106c0 30 13 46 36 46s36 -16 36 -46zM279 492
c0 -25 -21 -46 -46 -46s-46 21 -46 46s21 46 46 46s46 -21 46 -46z" />
    <glyph glyph-name="grave" unicode="`" horiz-adv-x="204" 
d="M158 608l-138 53c-28 10 -28 23 -28 33c0 15 11 34 28 34c6 0 14 -1 26 -6l138 -53c28 -10 28 -23 28 -33c0 -15 -11 -34 -28 -34c-6 0 -14 1 -26 6z" />
    <glyph glyph-name="acute" unicode="&#xb4;" horiz-adv-x="204" 
d="M20 669l138 53c12 5 20 6 26 6c17 0 28 -19 28 -34c0 -10 0 -23 -28 -33l-138 -53c-12 -5 -20 -6 -26 -6c-17 0 -28 19 -28 34c0 10 0 23 28 33z" />
    <glyph glyph-name="circumflex" unicode="&#x2c6;" horiz-adv-x="204" 
d="M102 714l127 -49c28 -11 29 -26 29 -37c0 -14 -12 -30 -30 -30c-10 0 -20 3 -26 5l-100 45l-100 -45c-6 -2 -16 -5 -26 -5c-18 0 -30 16 -30 30c0 11 1 26 29 37z" />
    <glyph glyph-name="tilde" unicode="&#x2dc;" horiz-adv-x="204" 
d="M42 640c-27 0 -31 -24 -55 -24c-19 0 -29 10 -29 27c0 32 38 63 80 63c43 0 83 -27 124 -27c27 0 31 25 55 25c19 0 29 -10 29 -33c0 -26 -38 -57 -80 -57c-43 0 -83 26 -124 26z" />
    <glyph glyph-name="macron" unicode="&#xaf;" horiz-adv-x="204" 
d="M196 597h-188c-30 0 -46 13 -46 36s16 36 46 36h188c30 0 46 -13 46 -36s-16 -36 -46 -36z" />
    <glyph glyph-name="breve" unicode="&#x2d8;" horiz-adv-x="204" 
d="M-32 687c0 25 11 33 27 33c41 0 25 -57 107 -57s66 57 107 57c16 0 27 -8 27 -33c0 -46 -49 -90 -134 -90s-134 44 -134 90z" />
    <glyph glyph-name="dotaccent" unicode="&#x2d9;" horiz-adv-x="204" 
d="M53 640c0 27 22 49 49 49s49 -22 49 -49s-22 -49 -49 -49s-49 22 -49 49z" />
    <glyph glyph-name="dieresis" unicode="&#xa8;" horiz-adv-x="204" 
d="M-36 640c0 27 22 49 49 49s49 -22 49 -49s-22 -49 -49 -49s-49 22 -49 49zM142 640c0 27 22 49 49 49s49 -22 49 -49s-22 -49 -49 -49s-49 22 -49 49z" />
    <glyph glyph-name="ring" unicode="&#x2da;" horiz-adv-x="204" 
d="M9 679c0 51 42 93 93 93s93 -42 93 -93s-42 -93 -93 -93s-93 42 -93 93zM51 679c0 -28 23 -51 51 -51s51 23 51 51s-23 51 -51 51s-51 -23 -51 -51z" />
    <glyph glyph-name="cedilla" unicode="&#xb8;" horiz-adv-x="204" 
d="M80 0h45l-26 -39l2 -2c7 2 16 3 24 3c38 0 62 -27 62 -56c0 -49 -42 -83 -101 -83c-46 0 -75 12 -75 36c0 12 6 24 26 24c21 0 24 -12 63 -12c18 0 27 12 27 25c0 24 -21 26 -44 26c-27 0 -38 1 -38 12c0 9 6 20 15 35z" />
    <glyph glyph-name="hungarumlaut" unicode="&#x2dd;" horiz-adv-x="204" 
d="M-80 669l138 53c12 5 20 6 26 6c17 0 28 -19 28 -34c0 -10 0 -23 -28 -33l-138 -53c-12 -5 -20 -6 -26 -6c-17 0 -28 19 -28 34c0 10 0 23 28 33zM120 669l138 53c12 5 20 6 26 6c17 0 28 -19 28 -34c0 -10 0 -23 -28 -33l-138 -53c-12 -5 -20 -6 -26 -6
c-17 0 -28 19 -28 34c0 10 0 23 28 33z" />
    <glyph glyph-name="ogonek" unicode="&#x2db;" horiz-adv-x="204" 
d="M77 0h51c-38 -32 -77 -68 -77 -96c0 -17 11 -27 28 -27c22 0 32 10 51 10s25 -14 25 -24c0 -23 -32 -40 -87 -40c-48 0 -83 14 -83 65c0 50 39 86 92 112z" />
    <glyph glyph-name="caron" unicode="&#x2c7;" horiz-adv-x="204" 
d="M102 598l-127 49c-28 11 -29 26 -29 37c0 14 12 30 30 30c10 0 20 -3 26 -5l100 -45l100 45c6 2 16 5 26 5c18 0 30 -16 30 -30c0 -11 -1 -26 -29 -37z" />
    <glyph glyph-name="emdash" unicode="&#x2014;" horiz-adv-x="1000" 
d="M1000 236h-1000c-24 0 -31 18 -31 30s7 30 31 30h1000c24 0 31 -18 31 -30s-7 -30 -31 -30z" />
    <glyph glyph-name="AE" unicode="&#xc6;" horiz-adv-x="741" 
d="M453 322v-256h218c23 0 38 -15 38 -33s-15 -33 -38 -33h-254c-20 0 -36 16 -36 41v119h-233l-60 -122c-11 -20 -26 -44 -49 -44c-14 0 -28 11 -28 27c0 14 4 22 18 50l310 623c6 12 14 18 26 18h296c23 0 38 -15 38 -33s-15 -33 -38 -33h-207v-258h198
c23 0 38 -15 38 -33s-15 -33 -38 -33h-199zM381 220v408h-2l-202 -408h204z" />
    <glyph glyph-name="ordfeminine" unicode="&#xaa;" horiz-adv-x="361" 
d="M322 690v-271c0 -16 -12 -28 -30 -28c-19 0 -30 12 -30 28v23h-2c-18 -32 -54 -51 -93 -51c-90 0 -145 82 -145 163c0 82 55 164 145 164c39 0 71 -14 93 -43h2v15c0 16 11 28 30 28c18 0 30 -12 30 -28zM262 555c0 69 -25 115 -90 115c-61 0 -84 -62 -84 -115
s25 -116 84 -116c65 0 90 46 90 116z" />
    <glyph glyph-name="Lslash" unicode="&#x141;" horiz-adv-x="370" 
d="M138 349v-283h188c23 0 38 -15 38 -33s-15 -33 -38 -33h-224c-20 0 -36 16 -36 36v271l-43 -26c-6 -3 -14 -6 -19 -6c-21 0 -26 18 -26 28c0 15 5 25 20 33l68 40v296c0 30 13 46 36 46s36 -16 36 -46v-254l82 48c8 5 15 8 22 8c16 0 26 -15 26 -30c0 -16 -7 -23 -22 -32
z" />
    <glyph glyph-name="Oslash" unicode="&#xd8;" horiz-adv-x="684" 
d="M526 536l-337 -407c34 -41 84 -69 153 -69c167 0 224 162 224 296c0 60 -12 127 -40 180zM156 179l337 406c-35 41 -84 67 -151 67c-167 0 -224 -162 -224 -296c0 -59 11 -124 38 -177zM52 52l56 68c-45 65 -68 150 -68 236c0 181 101 362 302 362c82 0 148 -30 196 -79
l57 69c11 13 20 20 32 20c18 0 27 -11 27 -24c0 -11 -6 -22 -21 -40l-58 -69c46 -66 69 -153 69 -239c0 -181 -101 -362 -302 -362c-83 0 -150 31 -198 81l-60 -73c-9 -11 -16 -18 -29 -18c-15 0 -26 13 -26 26c0 15 9 25 23 42z" />
    <glyph glyph-name="OE" unicode="&#x152;" horiz-adv-x="926" 
d="M40 356c0 180 101 362 302 362c95 0 183 -44 222 -123h2v81c0 20 13 36 49 36h231c23 0 38 -15 38 -33s-15 -33 -38 -33h-207v-258h198c23 0 38 -15 38 -33s-15 -33 -38 -33h-199v-256h218c23 0 38 -15 38 -33s-15 -33 -38 -33h-254c-20 0 -36 16 -36 36v86h-2
c-50 -82 -126 -128 -222 -128c-201 0 -302 182 -302 362zM566 356c0 133 -57 296 -224 296s-224 -163 -224 -296s57 -296 224 -296s224 163 224 296z" />
    <glyph glyph-name="ordmasculine" unicode="&#xba;" horiz-adv-x="348" 
d="M88 555c0 -53 25 -116 86 -116s86 63 86 114c0 55 -25 117 -86 117s-86 -62 -86 -115zM22 555c0 81 52 163 152 163c101 0 152 -82 152 -165c0 -80 -51 -162 -152 -162c-100 0 -152 82 -152 164z" />
    <glyph glyph-name="ae" unicode="&#xe6;" horiz-adv-x="889" 
d="M117 266c0 -97 39 -212 151 -212s150 115 150 212s-38 212 -150 212c-109 0 -151 -115 -151 -212zM418 40v35h-2c-32 -55 -88 -81 -148 -81c-153 0 -229 122 -229 272c0 134 73 272 227 272c67 0 107 -27 150 -77h2v31c0 30 13 46 33 46s33 -16 33 -46v-27h8
c22 39 85 73 139 73c150 0 227 -126 227 -260c0 -19 -6 -44 -49 -44h-325c3 -93 66 -180 158 -180c110 0 140 82 174 82c20 0 34 -7 34 -35c0 -32 -83 -107 -191 -107c-91 0 -142 33 -173 74h-2v-28c0 -30 -13 -46 -33 -46s-33 16 -33 46zM484 294h296
c-3 89 -53 184 -150 184c-93 0 -143 -95 -146 -184z" />
    <glyph glyph-name="dotlessi" unicode="&#x131;" horiz-adv-x="204" 
d="M138 492v-452c0 -30 -13 -46 -36 -46s-36 16 -36 46v452c0 30 13 46 36 46s36 -16 36 -46z" />
    <glyph glyph-name="lslash" unicode="&#x142;" horiz-adv-x="204" 
d="M138 383v-343c0 -30 -13 -46 -36 -46s-36 16 -36 46v284l-30 -25c-10 -8 -19 -11 -26 -11c-18 0 -27 12 -27 25s10 23 24 35l59 49v329c0 30 13 46 36 46s36 -16 36 -46v-268l26 22c8 6 17 12 31 12c16 0 27 -9 27 -26c0 -12 -8 -21 -25 -35z" />
    <glyph glyph-name="oslash" unicode="&#xf8;" 
d="M139 149l227 285c-22 26 -54 44 -98 44c-112 0 -151 -115 -151 -212c0 -39 6 -80 22 -117zM408 487l42 53c9 12 18 18 29 18c13 0 26 -12 26 -27c0 -11 -7 -21 -17 -34l-42 -53c35 -49 51 -114 51 -178c0 -150 -76 -272 -229 -272c-58 0 -106 18 -141 49l-41 -51
c-9 -12 -18 -18 -29 -18c-13 0 -26 12 -26 27c0 11 7 21 17 34l41 51c-34 47 -50 111 -50 180c0 134 73 272 229 272c58 0 105 -19 140 -51zM397 383l-227 -285c23 -27 55 -44 98 -44c112 0 151 115 151 212c0 39 -6 82 -22 117z" />
    <glyph glyph-name="oe" unicode="&#x153;" horiz-adv-x="908" 
d="M117 266c0 -97 39 -212 151 -212s151 115 151 212s-39 212 -151 212s-151 -115 -151 -212zM268 538c88 0 150 -42 188 -112c38 66 104 112 175 112c150 0 227 -126 227 -260c0 -19 -6 -44 -49 -44h-318c3 -93 61 -180 152 -180c109 0 139 82 173 82c20 0 34 -7 34 -35
c0 -32 -83 -107 -191 -107c-93 -2 -163 38 -203 108c-32 -58 -90 -108 -188 -108c-153 0 -229 122 -229 272c0 134 73 272 229 272zM491 294h289c-3 89 -53 184 -150 184c-86 0 -137 -95 -139 -184z" />
    <glyph glyph-name="germandbls" unicode="&#xdf;" horiz-adv-x="556" 
d="M138 558v-518c0 -30 -13 -46 -36 -46s-36 16 -36 46v526c0 136 84 206 186 206c117 0 192 -84 192 -192c0 -66 -20 -121 -77 -158c102 -27 136 -121 136 -206c0 -105 -59 -222 -183 -222c-38 0 -58 16 -59 37c-1 15 0 35 46 35c92 0 118 79 118 159
c0 82 -35 143 -114 152c-50 6 -52 19 -52 34c0 14 1 24 30 33c47 14 83 41 83 134c0 58 -34 128 -120 128c-88 0 -114 -74 -114 -148z" />
    <glyph glyph-name="onesuperior" unicode="&#xb9;" horiz-adv-x="229" 
d="M100 658h-56c-17 0 -27 12 -27 27s10 27 27 27h89c17 0 27 -12 27 -24v-373c0 -20 -12 -30 -30 -30s-30 10 -30 30v343z" />
    <glyph glyph-name="logicalnot" unicode="&#xac;" horiz-adv-x="600" 
d="M487 145v175h-402c-23 0 -38 15 -38 33s15 33 38 33h418c38 0 50 -16 50 -47v-194c0 -23 -15 -38 -33 -38s-33 15 -33 38z" />
    <glyph glyph-name="mu" unicode="&#xb5;" 
d="M66 -170v662c0 30 13 46 36 46s36 -16 36 -46v-299c0 -91 49 -139 130 -139s130 48 130 139v299c0 30 13 46 36 46s36 -16 36 -46v-462c0 -20 -16 -36 -36 -36s-36 16 -36 36c-33 -23 -79 -36 -130 -36c-49 0 -92 17 -128 56h-2v-220c0 -30 -13 -46 -36 -46
s-36 16 -36 46z" />
    <glyph glyph-name="trademark" unicode="&#x2122;" horiz-adv-x="990" 
d="M194 338v314h-99c-24 0 -31 18 -31 30s7 30 31 30h264c24 0 31 -18 31 -30s-7 -30 -31 -30h-99v-314c0 -23 -15 -38 -33 -38s-33 15 -33 38zM475 336v320c0 40 22 62 54 62c25 0 51 -10 68 -53l105 -265l102 265c17 43 43 53 68 53c32 0 54 -22 54 -62v-320
c0 -23 -15 -38 -33 -38s-33 15 -33 38v310h-2l-123 -315c-11 -28 -21 -33 -34 -33s-23 5 -34 33l-124 315h-2v-310c0 -23 -15 -38 -33 -38s-33 15 -33 38z" />
    <glyph glyph-name="Eth" unicode="&#xd0;" horiz-adv-x="630" 
d="M138 646v-254h141c23 0 39 -15 39 -33s-16 -33 -39 -33h-141v-260h140c173 0 234 131 234 298c0 136 -60 282 -230 282h-144zM66 36v290h-28c-23 0 -39 15 -39 33s16 33 39 33h28v284c0 20 16 36 36 36h186c216 0 302 -195 302 -361c0 -219 -135 -351 -308 -351h-180
c-20 0 -36 16 -36 36z" />
    <glyph glyph-name="onehalf" unicode="&#xbd;" horiz-adv-x="805" 
d="M192 38l260 665c6 15 14 25 31 25s28 -10 28 -23c0 -8 -3 -16 -9 -31l-260 -665c-6 -15 -14 -25 -31 -25s-28 10 -28 23c0 8 3 16 9 31zM126 658h-56c-17 0 -27 12 -27 27s10 27 27 27h89c17 0 27 -12 27 -24v-373c0 -20 -12 -30 -30 -30s-30 10 -30 30v343zM538 54h162
c15 0 25 -12 25 -27s-10 -27 -25 -27h-213c-19 0 -28 10 -28 21c0 9 3 17 12 29l138 188c27 36 40 62 40 84c0 32 -30 51 -66 51c-48 0 -71 -32 -78 -78c-3 -20 -13 -26 -32 -26c-16 0 -28 10 -28 26c0 77 49 132 138 132c92 0 132 -47 132 -99c0 -35 -15 -63 -44 -101z" />
    <glyph glyph-name="plusminus" unicode="&#xb1;" horiz-adv-x="600" 
d="M267 338v130c0 23 15 38 33 38s33 -15 33 -38v-130h182c23 0 38 -15 38 -33s-15 -33 -38 -33h-182v-130c0 -23 -15 -38 -33 -38s-33 15 -33 38v130h-182c-23 0 -38 15 -38 33s15 33 38 33h182zM515 0h-430c-23 0 -38 15 -38 33s15 33 38 33h430c23 0 38 -15 38 -33
s-15 -33 -38 -33z" />
    <glyph glyph-name="Thorn" unicode="&#xde;" horiz-adv-x="519" 
d="M138 150v-110c0 -30 -13 -46 -36 -46s-36 16 -36 46v632c0 30 13 46 36 46s36 -16 36 -46v-82h144c162 0 220 -126 220 -214c0 -118 -74 -226 -238 -226h-126zM138 524v-308h132c114 0 160 82 160 154s-46 154 -160 154h-132z" />
    <glyph glyph-name="onequarter" unicode="&#xbc;" horiz-adv-x="805" 
d="M701 101v-79c0 -14 -10 -28 -30 -28c-19 0 -30 14 -30 28v79h-176c-23 0 -29 12 -29 25c0 10 5 20 14 34l150 236c14 22 37 31 57 31c25 0 44 -13 44 -45v-227h22c15 0 25 -11 25 -27s-10 -27 -25 -27h-22zM641 155v224h-2l-140 -224h142zM192 38l260 665
c6 15 14 25 31 25s28 -10 28 -23c0 -8 -3 -16 -9 -31l-260 -665c-6 -15 -14 -25 -31 -25s-28 10 -28 23c0 8 3 16 9 31zM126 658h-56c-17 0 -27 12 -27 27s10 27 27 27h89c17 0 27 -12 27 -24v-373c0 -20 -12 -30 -30 -30s-30 10 -30 30v343z" />
    <glyph glyph-name="divide" unicode="&#xf7;" horiz-adv-x="600" 
d="M515 220h-430c-23 0 -38 15 -38 33s15 33 38 33h430c23 0 38 -15 38 -33s-15 -33 -38 -33zM237 43c0 35 28 63 63 63s63 -28 63 -63s-28 -63 -63 -63s-63 28 -63 63zM237 463c0 35 28 63 63 63s63 -28 63 -63s-28 -63 -63 -63s-63 28 -63 63z" />
    <glyph glyph-name="brokenbar" unicode="&#xa6;" horiz-adv-x="222" 
d="M78 363v274c0 23 15 38 33 38s33 -15 33 -38v-274c0 -23 -15 -38 -33 -38s-33 15 -33 38zM78 -137v274c0 23 15 38 33 38s33 -15 33 -38v-274c0 -23 -15 -38 -33 -38s-33 15 -33 38z" />
    <glyph glyph-name="degree" unicode="&#xb0;" horiz-adv-x="400" 
d="M57 575c0 80 63 143 143 143s143 -63 143 -143s-63 -143 -143 -143s-143 63 -143 143zM105 575c0 -52 43 -95 95 -95s95 43 95 95s-43 95 -95 95s-95 -43 -95 -95z" />
    <glyph glyph-name="thorn" unicode="&#xfe;" horiz-adv-x="556" 
d="M66 -170v896c0 30 13 46 36 46s36 -16 36 -46v-267h3c41 53 92 79 147 79c150 0 229 -138 229 -272s-79 -272 -229 -272c-55 0 -106 26 -147 79h-3v-243c0 -30 -13 -46 -36 -46s-36 16 -36 46zM137 266c0 -97 39 -212 151 -212s151 115 151 212s-39 212 -151 212
s-151 -115 -151 -212z" />
    <glyph glyph-name="threequarters" unicode="&#xbe;" horiz-adv-x="805" 
d="M701 101v-79c0 -14 -10 -28 -30 -28c-19 0 -30 14 -30 28v79h-176c-23 0 -29 12 -29 25c0 10 5 20 14 34l150 236c14 22 37 31 57 31c25 0 44 -13 44 -45v-227h22c15 0 25 -11 25 -27s-10 -27 -25 -27h-22zM641 155v224h-2l-140 -224h142zM242 38l260 665
c6 15 14 25 31 25s28 -10 28 -23c0 -8 -3 -16 -9 -31l-260 -665c-6 -15 -14 -25 -31 -25s-28 10 -28 23c0 8 3 16 9 31zM269 611c0 -41 -20 -75 -53 -92c46 -17 78 -50 78 -103c0 -77 -49 -131 -144 -131s-134 59 -134 91c0 18 14 27 28 27c12 0 25 -2 35 -27
c7 -17 21 -37 72 -37c41 0 77 29 77 80c0 41 -28 61 -69 64c-24 2 -30 12 -30 22c0 18 12 23 35 29c32 8 39 39 39 67c0 38 -17 63 -57 63c-30 0 -51 -19 -53 -47c-1 -20 -14 -28 -32 -28c-14 0 -28 10 -28 28c0 46 36 101 116 101c88 0 120 -52 120 -107z" />
    <glyph glyph-name="twosuperior" unicode="&#xb2;" horiz-adv-x="348" 
d="M127 345h162c15 0 25 -12 25 -27s-10 -27 -25 -27h-213c-19 0 -28 10 -28 21c0 9 3 17 12 29l138 188c27 36 40 62 40 84c0 32 -30 51 -66 51c-48 0 -71 -32 -78 -78c-3 -20 -13 -26 -32 -26c-16 0 -28 10 -28 26c0 77 49 132 138 132c92 0 132 -47 132 -99
c0 -35 -15 -63 -44 -101z" />
    <glyph glyph-name="registered" unicode="&#xae;" horiz-adv-x="800" 
d="M324 325v-150c0 -23 -11 -41 -30 -41s-30 18 -30 41v368c0 11 4 17 19 17h141c97 0 145 -39 145 -118c0 -76 -49 -108 -101 -115l88 -137c7 -11 13 -20 13 -31c0 -12 -11 -25 -30 -25c-12 0 -24 6 -35 24l-102 167h-78zM324 512v-139h74c58 0 111 4 111 72
c0 56 -48 67 -95 67h-90zM38 356c0 200 162 362 362 362s362 -162 362 -362s-162 -362 -362 -362s-362 162 -362 362zM104 356c0 -167 135 -302 296 -302s296 135 296 302s-135 302 -296 302s-296 -135 -296 -302z" />
    <glyph glyph-name="minus" unicode="&#x2212;" horiz-adv-x="600" 
d="M515 220h-430c-23 0 -38 15 -38 33s15 33 38 33h430c23 0 38 -15 38 -33s-15 -33 -38 -33z" />
    <glyph glyph-name="eth" unicode="&#xf0;" 
d="M268 -6c-152 0 -229 141 -229 268c0 129 77 270 229 270c46 0 101 -22 131 -67l2 2c-25 68 -74 131 -133 178l-96 -48c-13 -7 -18 -8 -24 -8c-13 0 -20 12 -20 23c0 12 7 19 20 26l84 43c-44 35 -98 34 -98 62c0 13 11 29 32 29c35 0 88 -34 127 -60l85 42
c15 7 21 8 25 8c15 0 22 -11 22 -24c0 -8 -2 -15 -14 -21l-79 -39c113 -96 165 -229 165 -382c0 -246 -139 -302 -229 -302zM117 262c0 -93 41 -208 151 -208s151 115 151 208c0 95 -41 208 -151 210c-110 0 -151 -115 -151 -210z" />
    <glyph glyph-name="multiply" unicode="&#xd7;" horiz-adv-x="600" 
d="M471 37l-171 171l-171 -171c-9 -9 -18 -14 -28 -14c-19 0 -31 15 -31 31c0 9 2 16 15 29l169 170l-169 170c-13 13 -15 20 -15 29c0 16 12 31 31 31c10 0 19 -5 28 -14l171 -171l171 171c9 9 18 14 28 14c19 0 31 -15 31 -31c0 -9 -2 -16 -15 -29l-169 -170l169 -170
c13 -13 15 -20 15 -29c0 -16 -12 -31 -31 -31c-10 0 -19 5 -28 14z" />
    <glyph glyph-name="threesuperior" unicode="&#xb3;" horiz-adv-x="348" 
d="M288 611c0 -41 -20 -75 -53 -92c46 -17 78 -50 78 -103c0 -77 -49 -131 -144 -131s-134 59 -134 91c0 18 14 27 28 27c12 0 25 -2 35 -27c7 -17 21 -37 72 -37c41 0 77 29 77 80c0 41 -28 61 -69 64c-24 2 -30 12 -30 22c0 18 12 23 35 29c32 8 39 39 39 67
c0 38 -17 63 -57 63c-30 0 -51 -19 -53 -47c-1 -20 -14 -28 -32 -28c-14 0 -28 10 -28 28c0 46 36 101 116 101c88 0 120 -52 120 -107z" />
    <glyph glyph-name="copyright" unicode="&#xa9;" horiz-adv-x="800" 
d="M257 353c0 -95 56 -166 149 -166c105 0 100 102 147 102c18 0 25 -12 25 -27c0 -38 -56 -135 -172 -135c-130 0 -215 98 -215 224c0 129 80 224 209 224c123 0 184 -92 184 -127c0 -21 -12 -31 -30 -31c-55 0 -35 98 -156 98c-89 0 -141 -70 -141 -162zM38 356
c0 200 162 362 362 362s362 -162 362 -362s-162 -362 -362 -362s-362 162 -362 362zM104 356c0 -167 135 -302 296 -302s296 135 296 302s-135 302 -296 302s-296 -135 -296 -302z" />
    <glyph glyph-name="Aacute" unicode="&#xc1;" horiz-adv-x="612" 
d="M133 155l-47 -128c-9 -18 -15 -33 -40 -33c-21 0 -32 13 -32 28c0 8 3 20 7 30l229 614c9 23 20 52 56 52s47 -29 56 -52l229 -614c4 -10 7 -22 7 -30c0 -15 -11 -28 -32 -28c-25 0 -33 15 -40 33l-47 128h-346zM455 221l-148 403h-2l-148 -403h298zM224 829l138 53
c12 5 20 6 26 6c17 0 28 -19 28 -34c0 -10 0 -23 -28 -33l-138 -53c-12 -5 -20 -6 -26 -6c-17 0 -28 19 -28 34c0 10 0 23 28 33z" />
    <glyph glyph-name="Acircumflex" unicode="&#xc2;" horiz-adv-x="612" 
d="M133 155l-47 -128c-9 -18 -15 -33 -40 -33c-21 0 -32 13 -32 28c0 8 3 20 7 30l229 614c9 23 20 52 56 52s47 -29 56 -52l229 -614c4 -10 7 -22 7 -30c0 -15 -11 -28 -32 -28c-25 0 -33 15 -40 33l-47 128h-346zM455 221l-148 403h-2l-148 -403h298zM306 874l127 -49
c28 -11 29 -26 29 -37c0 -14 -12 -30 -30 -30c-10 0 -20 3 -26 5l-100 45l-100 -45c-6 -2 -16 -5 -26 -5c-18 0 -30 16 -30 30c0 11 1 26 29 37z" />
    <glyph glyph-name="Adieresis" unicode="&#xc4;" horiz-adv-x="612" 
d="M133 155l-47 -128c-9 -18 -15 -33 -40 -33c-21 0 -32 13 -32 28c0 8 3 20 7 30l229 614c9 23 20 52 56 52s47 -29 56 -52l229 -614c4 -10 7 -22 7 -30c0 -15 -11 -28 -32 -28c-25 0 -33 15 -40 33l-47 128h-346zM455 221l-148 403h-2l-148 -403h298zM168 800
c0 27 22 49 49 49s49 -22 49 -49s-22 -49 -49 -49s-49 22 -49 49zM346 800c0 27 22 49 49 49s49 -22 49 -49s-22 -49 -49 -49s-49 22 -49 49z" />
    <glyph glyph-name="Agrave" unicode="&#xc0;" horiz-adv-x="612" 
d="M133 155l-47 -128c-9 -18 -15 -33 -40 -33c-21 0 -32 13 -32 28c0 8 3 20 7 30l229 614c9 23 20 52 56 52s47 -29 56 -52l229 -614c4 -10 7 -22 7 -30c0 -15 -11 -28 -32 -28c-25 0 -33 15 -40 33l-47 128h-346zM455 221l-148 403h-2l-148 -403h298zM362 768l-138 53
c-28 10 -28 23 -28 33c0 15 11 34 28 34c6 0 14 -1 26 -6l138 -53c28 -10 28 -23 28 -33c0 -15 -11 -34 -28 -34c-6 0 -14 1 -26 6z" />
    <glyph glyph-name="Aring" unicode="&#xc5;" horiz-adv-x="612" 
d="M133 155l-47 -128c-9 -18 -15 -33 -40 -33c-21 0 -32 13 -32 28c0 8 3 20 7 30l229 614c9 23 20 52 56 52s47 -29 56 -52l229 -614c4 -10 7 -22 7 -30c0 -15 -11 -28 -32 -28c-25 0 -33 15 -40 33l-47 128h-346zM455 221l-148 403h-2l-148 -403h298zM213 829
c0 51 42 93 93 93s93 -42 93 -93s-42 -93 -93 -93s-93 42 -93 93zM255 829c0 -28 23 -51 51 -51s51 23 51 51s-23 51 -51 51s-51 -23 -51 -51z" />
    <glyph glyph-name="Atilde" unicode="&#xc3;" horiz-adv-x="612" 
d="M133 155l-47 -128c-9 -18 -15 -33 -40 -33c-21 0 -32 13 -32 28c0 8 3 20 7 30l229 614c9 23 20 52 56 52s47 -29 56 -52l229 -614c4 -10 7 -22 7 -30c0 -15 -11 -28 -32 -28c-25 0 -33 15 -40 33l-47 128h-346zM455 221l-148 403h-2l-148 -403h298zM246 800
c-27 0 -31 -24 -55 -24c-19 0 -29 10 -29 27c0 32 38 63 80 63c43 0 83 -27 124 -27c27 0 31 25 55 25c19 0 29 -10 29 -33c0 -26 -38 -57 -80 -57c-43 0 -83 26 -124 26z" />
    <glyph glyph-name="Ccedilla" unicode="&#xc7;" horiz-adv-x="593" 
d="M366 -5l-22 -34l2 -2c7 2 16 3 24 3c38 0 62 -27 62 -56c0 -49 -42 -83 -101 -83c-46 0 -75 12 -75 36c0 12 6 24 26 24c21 0 24 -12 63 -12c18 0 27 12 27 25c0 24 -21 26 -44 26c-27 0 -38 1 -38 12c0 9 6 20 15 35l17 27c-193 16 -282 171 -282 350
c0 187 100 372 310 372c120 0 216 -72 216 -107c0 -25 -17 -38 -32 -38c-30 0 -67 79 -185 79c-150 0 -231 -161 -231 -306c0 -147 72 -286 244 -286c125 0 163 70 189 70c18 0 30 -11 30 -36c0 -30 -88 -97 -215 -99z" />
    <glyph glyph-name="Eacute" unicode="&#xc9;" horiz-adv-x="444" 
d="M138 322v-256h218c23 0 38 -15 38 -33s-15 -33 -38 -33h-246c-32 0 -44 13 -44 38v636c0 25 12 38 44 38h236c23 0 38 -15 38 -33s-15 -33 -38 -33h-207v-258h198c23 0 38 -15 38 -33s-15 -33 -38 -33h-199zM140 829l138 53c12 5 20 6 26 6c17 0 28 -19 28 -34
c0 -10 0 -23 -28 -33l-138 -53c-12 -5 -20 -6 -26 -6c-17 0 -28 19 -28 34c0 10 0 23 28 33z" />
    <glyph glyph-name="Ecircumflex" unicode="&#xca;" horiz-adv-x="444" 
d="M138 322v-256h218c23 0 38 -15 38 -33s-15 -33 -38 -33h-246c-32 0 -44 13 -44 38v636c0 25 12 38 44 38h236c23 0 38 -15 38 -33s-15 -33 -38 -33h-207v-258h198c23 0 38 -15 38 -33s-15 -33 -38 -33h-199zM222 874l127 -49c28 -11 29 -26 29 -37c0 -14 -12 -30 -30 -30
c-10 0 -20 3 -26 5l-100 45l-100 -45c-6 -2 -16 -5 -26 -5c-18 0 -30 16 -30 30c0 11 1 26 29 37z" />
    <glyph glyph-name="Edieresis" unicode="&#xcb;" horiz-adv-x="444" 
d="M138 322v-256h218c23 0 38 -15 38 -33s-15 -33 -38 -33h-246c-32 0 -44 13 -44 38v636c0 25 12 38 44 38h236c23 0 38 -15 38 -33s-15 -33 -38 -33h-207v-258h198c23 0 38 -15 38 -33s-15 -33 -38 -33h-199zM84 800c0 27 22 49 49 49s49 -22 49 -49s-22 -49 -49 -49
s-49 22 -49 49zM262 800c0 27 22 49 49 49s49 -22 49 -49s-22 -49 -49 -49s-49 22 -49 49z" />
    <glyph glyph-name="Egrave" unicode="&#xc8;" horiz-adv-x="444" 
d="M138 322v-256h218c23 0 38 -15 38 -33s-15 -33 -38 -33h-246c-32 0 -44 13 -44 38v636c0 25 12 38 44 38h236c23 0 38 -15 38 -33s-15 -33 -38 -33h-207v-258h198c23 0 38 -15 38 -33s-15 -33 -38 -33h-199zM278 768l-138 53c-28 10 -28 23 -28 33c0 15 11 34 28 34
c6 0 14 -1 26 -6l138 -53c28 -10 28 -23 28 -33c0 -15 -11 -34 -28 -34c-6 0 -14 1 -26 6z" />
    <glyph glyph-name="Iacute" unicode="&#xcd;" horiz-adv-x="204" 
d="M138 672v-632c0 -30 -13 -46 -36 -46s-36 16 -36 46v632c0 30 13 46 36 46s36 -16 36 -46zM20 829l138 53c12 5 20 6 26 6c17 0 28 -19 28 -34c0 -10 0 -23 -28 -33l-138 -53c-12 -5 -20 -6 -26 -6c-17 0 -28 19 -28 34c0 10 0 23 28 33z" />
    <glyph glyph-name="Icircumflex" unicode="&#xce;" horiz-adv-x="204" 
d="M138 672v-632c0 -30 -13 -46 -36 -46s-36 16 -36 46v632c0 30 13 46 36 46s36 -16 36 -46zM102 874l127 -49c28 -11 29 -26 29 -37c0 -14 -12 -30 -30 -30c-10 0 -20 3 -26 5l-100 45l-100 -45c-6 -2 -16 -5 -26 -5c-18 0 -30 16 -30 30c0 11 1 26 29 37z" />
    <glyph glyph-name="Idieresis" unicode="&#xcf;" horiz-adv-x="204" 
d="M138 672v-632c0 -30 -13 -46 -36 -46s-36 16 -36 46v632c0 30 13 46 36 46s36 -16 36 -46zM-36 800c0 27 22 49 49 49s49 -22 49 -49s-22 -49 -49 -49s-49 22 -49 49zM142 800c0 27 22 49 49 49s49 -22 49 -49s-22 -49 -49 -49s-49 22 -49 49z" />
    <glyph glyph-name="Igrave" unicode="&#xcc;" horiz-adv-x="204" 
d="M138 672v-632c0 -30 -13 -46 -36 -46s-36 16 -36 46v632c0 30 13 46 36 46s36 -16 36 -46zM158 768l-138 53c-28 10 -28 23 -28 33c0 15 11 34 28 34c6 0 14 -1 26 -6l138 -53c28 -10 28 -23 28 -33c0 -15 -11 -34 -28 -34c-6 0 -14 1 -26 6z" />
    <glyph glyph-name="Ntilde" unicode="&#xd1;" horiz-adv-x="666" 
d="M138 586v-546c0 -30 -13 -46 -36 -46s-36 16 -36 46v636c0 28 16 42 36 42s32 -12 42 -26l382 -559h2v539c0 30 13 46 36 46s36 -16 36 -46v-634c0 -34 -14 -44 -34 -44c-19 0 -27 9 -39 26l-387 566h-2zM273 800c-27 0 -31 -24 -55 -24c-19 0 -29 10 -29 27
c0 32 38 63 80 63c43 0 83 -27 124 -27c27 0 31 25 55 25c19 0 29 -10 29 -33c0 -26 -38 -57 -80 -57c-43 0 -83 26 -124 26z" />
    <glyph glyph-name="Oacute" unicode="&#xd3;" horiz-adv-x="684" 
d="M40 356c0 181 101 362 302 362s302 -181 302 -362s-101 -362 -302 -362s-302 181 -302 362zM342 60c167 0 224 162 224 296s-57 296 -224 296s-224 -162 -224 -296s57 -296 224 -296zM260 829l138 53c12 5 20 6 26 6c17 0 28 -19 28 -34c0 -10 0 -23 -28 -33l-138 -53
c-12 -5 -20 -6 -26 -6c-17 0 -28 19 -28 34c0 10 0 23 28 33z" />
    <glyph glyph-name="Ocircumflex" unicode="&#xd4;" horiz-adv-x="684" 
d="M40 356c0 181 101 362 302 362s302 -181 302 -362s-101 -362 -302 -362s-302 181 -302 362zM342 60c167 0 224 162 224 296s-57 296 -224 296s-224 -162 -224 -296s57 -296 224 -296zM342 874l127 -49c28 -11 29 -26 29 -37c0 -14 -12 -30 -30 -30c-10 0 -20 3 -26 5
l-100 45l-100 -45c-6 -2 -16 -5 -26 -5c-18 0 -30 16 -30 30c0 11 1 26 29 37z" />
    <glyph glyph-name="Odieresis" unicode="&#xd6;" horiz-adv-x="684" 
d="M40 356c0 181 101 362 302 362s302 -181 302 -362s-101 -362 -302 -362s-302 181 -302 362zM342 60c167 0 224 162 224 296s-57 296 -224 296s-224 -162 -224 -296s57 -296 224 -296zM204 800c0 27 22 49 49 49s49 -22 49 -49s-22 -49 -49 -49s-49 22 -49 49zM382 800
c0 27 22 49 49 49s49 -22 49 -49s-22 -49 -49 -49s-49 22 -49 49z" />
    <glyph glyph-name="Ograve" unicode="&#xd2;" horiz-adv-x="684" 
d="M40 356c0 181 101 362 302 362s302 -181 302 -362s-101 -362 -302 -362s-302 181 -302 362zM342 60c167 0 224 162 224 296s-57 296 -224 296s-224 -162 -224 -296s57 -296 224 -296zM398 768l-138 53c-28 10 -28 23 -28 33c0 15 11 34 28 34c6 0 14 -1 26 -6l138 -53
c28 -10 28 -23 28 -33c0 -15 -11 -34 -28 -34c-6 0 -14 1 -26 6z" />
    <glyph glyph-name="Otilde" unicode="&#xd5;" horiz-adv-x="684" 
d="M40 356c0 181 101 362 302 362s302 -181 302 -362s-101 -362 -302 -362s-302 181 -302 362zM342 60c167 0 224 162 224 296s-57 296 -224 296s-224 -162 -224 -296s57 -296 224 -296zM282 800c-27 0 -31 -24 -55 -24c-19 0 -29 10 -29 27c0 32 38 63 80 63
c43 0 83 -27 124 -27c27 0 31 25 55 25c19 0 29 -10 29 -33c0 -26 -38 -57 -80 -57c-43 0 -83 26 -124 26z" />
    <glyph glyph-name="Scaron" unicode="&#x160;" horiz-adv-x="462" 
d="M216 -6c-118 0 -196 46 -196 85c0 19 15 35 34 35c8 0 26 -10 34 -17s67 -37 118 -37c100 0 164 80 164 155c0 171 -338 105 -338 321c0 115 98 179 206 182c78 0 162 -44 162 -78c0 -22 -17 -38 -30 -38c-37 0 -61 50 -137 50c-75 0 -129 -52 -129 -111
c0 -157 338 -93 338 -321c0 -129 -89 -226 -226 -226zM231 758l-127 49c-28 11 -29 26 -29 37c0 14 12 30 30 30c10 0 20 -3 26 -5l100 -45l100 45c6 2 16 5 26 5c18 0 30 -16 30 -30c0 -11 -1 -26 -29 -37z" />
    <glyph glyph-name="Uacute" unicode="&#xda;" horiz-adv-x="666" 
d="M66 242v430c0 30 13 46 36 46s36 -16 36 -46v-421c0 -131 95 -191 195 -191s195 60 195 191v421c0 30 13 46 36 46s36 -16 36 -46v-430c0 -164 -129 -248 -267 -248s-267 84 -267 248zM251 829l138 53c12 5 20 6 26 6c17 0 28 -19 28 -34c0 -10 0 -23 -28 -33l-138 -53
c-12 -5 -20 -6 -26 -6c-17 0 -28 19 -28 34c0 10 0 23 28 33z" />
    <glyph glyph-name="Ucircumflex" unicode="&#xdb;" horiz-adv-x="666" 
d="M66 242v430c0 30 13 46 36 46s36 -16 36 -46v-421c0 -131 95 -191 195 -191s195 60 195 191v421c0 30 13 46 36 46s36 -16 36 -46v-430c0 -164 -129 -248 -267 -248s-267 84 -267 248zM333 874l127 -49c28 -11 29 -26 29 -37c0 -14 -12 -30 -30 -30c-10 0 -20 3 -26 5
l-100 45l-100 -45c-6 -2 -16 -5 -26 -5c-18 0 -30 16 -30 30c0 11 1 26 29 37z" />
    <glyph glyph-name="Udieresis" unicode="&#xdc;" horiz-adv-x="666" 
d="M66 242v430c0 30 13 46 36 46s36 -16 36 -46v-421c0 -131 95 -191 195 -191s195 60 195 191v421c0 30 13 46 36 46s36 -16 36 -46v-430c0 -164 -129 -248 -267 -248s-267 84 -267 248zM195 800c0 27 22 49 49 49s49 -22 49 -49s-22 -49 -49 -49s-49 22 -49 49zM373 800
c0 27 22 49 49 49s49 -22 49 -49s-22 -49 -49 -49s-49 22 -49 49z" />
    <glyph glyph-name="Ugrave" unicode="&#xd9;" horiz-adv-x="666" 
d="M66 242v430c0 30 13 46 36 46s36 -16 36 -46v-421c0 -131 95 -191 195 -191s195 60 195 191v421c0 30 13 46 36 46s36 -16 36 -46v-430c0 -164 -129 -248 -267 -248s-267 84 -267 248zM389 768l-138 53c-28 10 -28 23 -28 33c0 15 11 34 28 34c6 0 14 -1 26 -6l138 -53
c28 -10 28 -23 28 -33c0 -15 -11 -34 -28 -34c-6 0 -14 1 -26 6z" />
    <glyph glyph-name="Yacute" unicode="&#xdd;" horiz-adv-x="482" 
d="M241 407l174 290c9 16 20 21 36 21c20 0 30 -13 30 -28c0 -9 -4 -20 -22 -50l-182 -303v-297c0 -30 -13 -46 -36 -46s-36 16 -36 46v297l-182 303c-18 30 -22 41 -22 50c0 15 10 28 30 28c16 0 27 -5 36 -21zM159 829l138 53c12 5 20 6 26 6c17 0 28 -19 28 -34
c0 -10 0 -23 -28 -33l-138 -53c-12 -5 -20 -6 -26 -6c-17 0 -28 19 -28 34c0 10 0 23 28 33z" />
    <glyph glyph-name="Ydieresis" unicode="&#x178;" horiz-adv-x="482" 
d="M241 407l174 290c9 16 20 21 36 21c20 0 30 -13 30 -28c0 -9 -4 -20 -22 -50l-182 -303v-297c0 -30 -13 -46 -36 -46s-36 16 -36 46v297l-182 303c-18 30 -22 41 -22 50c0 15 10 28 30 28c16 0 27 -5 36 -21zM103 800c0 27 22 49 49 49s49 -22 49 -49s-22 -49 -49 -49
s-49 22 -49 49zM281 800c0 27 22 49 49 49s49 -22 49 -49s-22 -49 -49 -49s-49 22 -49 49z" />
    <glyph glyph-name="Zcaron" unicode="&#x17d;" horiz-adv-x="556" 
d="M118 66h372c23 0 38 -15 38 -33s-15 -33 -38 -33h-402c-41 0 -60 17 -60 40c0 14 9 31 29 62l357 544h-334c-23 0 -38 15 -38 33s15 33 38 33h401c25 0 34 -14 34 -27c0 -11 -5 -23 -14 -36zM278 758l-127 49c-28 11 -29 26 -29 37c0 14 12 30 30 30c10 0 20 -3 26 -5
l100 -45l100 45c6 2 16 5 26 5c18 0 30 -16 30 -30c0 -11 -1 -26 -29 -37z" />
    <glyph glyph-name="aacute" unicode="&#xe1;" horiz-adv-x="556" 
d="M418 459v33c0 30 13 46 36 46s36 -16 36 -46v-452c0 -30 -13 -46 -36 -46s-36 16 -36 46v33h-3c-32 -52 -85 -79 -147 -79c-153 0 -229 122 -229 272c0 134 73 272 227 272c62 0 108 -26 149 -79h3zM117 266c0 -97 39 -212 151 -212s150 115 150 212s-38 212 -150 212
c-109 0 -151 -115 -151 -212zM196 669l138 53c12 5 20 6 26 6c17 0 28 -19 28 -34c0 -10 0 -23 -28 -33l-138 -53c-12 -5 -20 -6 -26 -6c-17 0 -28 19 -28 34c0 10 0 23 28 33z" />
    <glyph glyph-name="acircumflex" unicode="&#xe2;" horiz-adv-x="556" 
d="M418 459v33c0 30 13 46 36 46s36 -16 36 -46v-452c0 -30 -13 -46 -36 -46s-36 16 -36 46v33h-3c-32 -52 -85 -79 -147 -79c-153 0 -229 122 -229 272c0 134 73 272 227 272c62 0 108 -26 149 -79h3zM117 266c0 -97 39 -212 151 -212s150 115 150 212s-38 212 -150 212
c-109 0 -151 -115 -151 -212zM278 714l127 -49c28 -11 29 -26 29 -37c0 -14 -12 -30 -30 -30c-10 0 -20 3 -26 5l-100 45l-100 -45c-6 -2 -16 -5 -26 -5c-18 0 -30 16 -30 30c0 11 1 26 29 37z" />
    <glyph glyph-name="adieresis" unicode="&#xe4;" horiz-adv-x="556" 
d="M418 459v33c0 30 13 46 36 46s36 -16 36 -46v-452c0 -30 -13 -46 -36 -46s-36 16 -36 46v33h-3c-32 -52 -85 -79 -147 -79c-153 0 -229 122 -229 272c0 134 73 272 227 272c62 0 108 -26 149 -79h3zM117 266c0 -97 39 -212 151 -212s150 115 150 212s-38 212 -150 212
c-109 0 -151 -115 -151 -212zM140 640c0 27 22 49 49 49s49 -22 49 -49s-22 -49 -49 -49s-49 22 -49 49zM318 640c0 27 22 49 49 49s49 -22 49 -49s-22 -49 -49 -49s-49 22 -49 49z" />
    <glyph glyph-name="agrave" unicode="&#xe0;" horiz-adv-x="556" 
d="M418 459v33c0 30 13 46 36 46s36 -16 36 -46v-452c0 -30 -13 -46 -36 -46s-36 16 -36 46v33h-3c-32 -52 -85 -79 -147 -79c-153 0 -229 122 -229 272c0 134 73 272 227 272c62 0 108 -26 149 -79h3zM117 266c0 -97 39 -212 151 -212s150 115 150 212s-38 212 -150 212
c-109 0 -151 -115 -151 -212zM334 608l-138 53c-28 10 -28 23 -28 33c0 15 11 34 28 34c6 0 14 -1 26 -6l138 -53c28 -10 28 -23 28 -33c0 -15 -11 -34 -28 -34c-6 0 -14 1 -26 6z" />
    <glyph glyph-name="aring" unicode="&#xe5;" horiz-adv-x="556" 
d="M418 459v33c0 30 13 46 36 46s36 -16 36 -46v-452c0 -30 -13 -46 -36 -46s-36 16 -36 46v33h-3c-32 -52 -85 -79 -147 -79c-153 0 -229 122 -229 272c0 134 73 272 227 272c62 0 108 -26 149 -79h3zM117 266c0 -97 39 -212 151 -212s150 115 150 212s-38 212 -150 212
c-109 0 -151 -115 -151 -212zM185 679c0 51 42 93 93 93s93 -42 93 -93s-42 -93 -93 -93s-93 42 -93 93zM227 679c0 -28 23 -51 51 -51s51 23 51 51s-23 51 -51 51s-51 -23 -51 -51z" />
    <glyph glyph-name="atilde" unicode="&#xe3;" horiz-adv-x="556" 
d="M418 459v33c0 30 13 46 36 46s36 -16 36 -46v-452c0 -30 -13 -46 -36 -46s-36 16 -36 46v33h-3c-32 -52 -85 -79 -147 -79c-153 0 -229 122 -229 272c0 134 73 272 227 272c62 0 108 -26 149 -79h3zM117 266c0 -97 39 -212 151 -212s150 115 150 212s-38 212 -150 212
c-109 0 -151 -115 -151 -212zM218 640c-27 0 -31 -24 -55 -24c-19 0 -29 10 -29 27c0 32 38 63 80 63c43 0 83 -27 124 -27c27 0 31 25 55 25c19 0 29 -10 29 -33c0 -26 -38 -57 -80 -57c-43 0 -83 26 -124 26z" />
    <glyph glyph-name="ccedilla" unicode="&#xe7;" horiz-adv-x="444" 
d="M292 -4l-23 -35l2 -2c7 2 16 3 24 3c38 0 62 -27 62 -56c0 -49 -42 -83 -101 -83c-46 0 -75 12 -75 36c0 12 6 24 26 24c21 0 24 -12 63 -12c18 0 27 12 27 25c0 24 -21 26 -44 26c-27 0 -38 1 -38 12c0 9 6 20 15 35l17 26c-137 13 -208 144 -208 271
c0 134 87 272 238 272c68 0 132 -26 132 -56c0 -23 -12 -40 -40 -40c-19 0 -36 30 -101 30c-102 0 -151 -115 -151 -200c0 -112 57 -212 151 -212c65 0 88 28 108 28c13 0 30 -12 30 -29c0 -39 -52 -60 -114 -63z" />
    <glyph glyph-name="eacute" unicode="&#xe9;" horiz-adv-x="519" 
d="M446 234h-329c3 -93 66 -180 158 -180c114 0 144 82 178 82c20 0 34 -7 34 -35c0 -32 -83 -107 -207 -107c-170 0 -241 138 -241 272s79 272 229 272s227 -126 227 -260c0 -19 -6 -44 -49 -44zM117 294h300c-3 89 -53 184 -150 184s-147 -95 -150 -184zM178 669l138 53
c12 5 20 6 26 6c17 0 28 -19 28 -34c0 -10 0 -23 -28 -33l-138 -53c-12 -5 -20 -6 -26 -6c-17 0 -28 19 -28 34c0 10 0 23 28 33z" />
    <glyph glyph-name="ecircumflex" unicode="&#xea;" horiz-adv-x="519" 
d="M446 234h-329c3 -93 66 -180 158 -180c114 0 144 82 178 82c20 0 34 -7 34 -35c0 -32 -83 -107 -207 -107c-170 0 -241 138 -241 272s79 272 229 272s227 -126 227 -260c0 -19 -6 -44 -49 -44zM117 294h300c-3 89 -53 184 -150 184s-147 -95 -150 -184zM260 714l127 -49
c28 -11 29 -26 29 -37c0 -14 -12 -30 -30 -30c-10 0 -20 3 -26 5l-100 45l-100 -45c-6 -2 -16 -5 -26 -5c-18 0 -30 16 -30 30c0 11 1 26 29 37z" />
    <glyph glyph-name="edieresis" unicode="&#xeb;" horiz-adv-x="519" 
d="M446 234h-329c3 -93 66 -180 158 -180c114 0 144 82 178 82c20 0 34 -7 34 -35c0 -32 -83 -107 -207 -107c-170 0 -241 138 -241 272s79 272 229 272s227 -126 227 -260c0 -19 -6 -44 -49 -44zM117 294h300c-3 89 -53 184 -150 184s-147 -95 -150 -184zM122 640
c0 27 22 49 49 49s49 -22 49 -49s-22 -49 -49 -49s-49 22 -49 49zM300 640c0 27 22 49 49 49s49 -22 49 -49s-22 -49 -49 -49s-49 22 -49 49z" />
    <glyph glyph-name="egrave" unicode="&#xe8;" horiz-adv-x="519" 
d="M446 234h-329c3 -93 66 -180 158 -180c114 0 144 82 178 82c20 0 34 -7 34 -35c0 -32 -83 -107 -207 -107c-170 0 -241 138 -241 272s79 272 229 272s227 -126 227 -260c0 -19 -6 -44 -49 -44zM117 294h300c-3 89 -53 184 -150 184s-147 -95 -150 -184zM316 608l-138 53
c-28 10 -28 23 -28 33c0 15 11 34 28 34c6 0 14 -1 26 -6l138 -53c28 -10 28 -23 28 -33c0 -15 -11 -34 -28 -34c-6 0 -14 1 -26 6z" />
    <glyph glyph-name="iacute" unicode="&#xed;" horiz-adv-x="204" 
d="M138 492v-452c0 -30 -13 -46 -36 -46s-36 16 -36 46v452c0 30 13 46 36 46s36 -16 36 -46zM20 669l138 53c12 5 20 6 26 6c17 0 28 -19 28 -34c0 -10 0 -23 -28 -33l-138 -53c-12 -5 -20 -6 -26 -6c-17 0 -28 19 -28 34c0 10 0 23 28 33z" />
    <glyph glyph-name="icircumflex" unicode="&#xee;" horiz-adv-x="204" 
d="M138 492v-452c0 -30 -13 -46 -36 -46s-36 16 -36 46v452c0 30 13 46 36 46s36 -16 36 -46zM102 714l127 -49c28 -11 29 -26 29 -37c0 -14 -12 -30 -30 -30c-10 0 -20 3 -26 5l-100 45l-100 -45c-6 -2 -16 -5 -26 -5c-18 0 -30 16 -30 30c0 11 1 26 29 37z" />
    <glyph glyph-name="idieresis" unicode="&#xef;" horiz-adv-x="204" 
d="M138 492v-452c0 -30 -13 -46 -36 -46s-36 16 -36 46v452c0 30 13 46 36 46s36 -16 36 -46zM-36 640c0 27 22 49 49 49s49 -22 49 -49s-22 -49 -49 -49s-49 22 -49 49zM142 640c0 27 22 49 49 49s49 -22 49 -49s-22 -49 -49 -49s-49 22 -49 49z" />
    <glyph glyph-name="igrave" unicode="&#xec;" horiz-adv-x="204" 
d="M138 492v-452c0 -30 -13 -46 -36 -46s-36 16 -36 46v452c0 30 13 46 36 46s36 -16 36 -46zM158 608l-138 53c-28 10 -28 23 -28 33c0 15 11 34 28 34c6 0 14 -1 26 -6l138 -53c28 -10 28 -23 28 -33c0 -15 -11 -34 -28 -34c-6 0 -14 1 -26 6z" />
    <glyph glyph-name="ntilde" unicode="&#xf1;" 
d="M138 333v-293c0 -30 -13 -46 -36 -46s-36 16 -36 46v452c0 30 13 46 36 46s36 -16 36 -46v-26h2c27 39 71 72 139 72c94 0 191 -63 191 -190v-308c0 -30 -13 -46 -36 -46s-36 16 -36 46v310c0 74 -50 122 -130 122c-67 0 -130 -48 -130 -139zM208 640
c-27 0 -31 -24 -55 -24c-19 0 -29 10 -29 27c0 32 38 63 80 63c43 0 83 -27 124 -27c27 0 31 25 55 25c19 0 29 -10 29 -33c0 -26 -38 -57 -80 -57c-43 0 -83 26 -124 26z" />
    <glyph glyph-name="oacute" unicode="&#xf3;" 
d="M117 266c0 -97 39 -212 151 -212s151 115 151 212s-39 212 -151 212s-151 -115 -151 -212zM497 266c0 -150 -76 -272 -229 -272s-229 122 -229 272c0 134 73 272 229 272c157 0 229 -138 229 -272zM186 669l138 53c12 5 20 6 26 6c17 0 28 -19 28 -34
c0 -10 0 -23 -28 -33l-138 -53c-12 -5 -20 -6 -26 -6c-17 0 -28 19 -28 34c0 10 0 23 28 33z" />
    <glyph glyph-name="ocircumflex" unicode="&#xf4;" 
d="M117 266c0 -97 39 -212 151 -212s151 115 151 212s-39 212 -151 212s-151 -115 -151 -212zM497 266c0 -150 -76 -272 -229 -272s-229 122 -229 272c0 134 73 272 229 272c157 0 229 -138 229 -272zM268 714l127 -49c28 -11 29 -26 29 -37c0 -14 -12 -30 -30 -30
c-10 0 -20 3 -26 5l-100 45l-100 -45c-6 -2 -16 -5 -26 -5c-18 0 -30 16 -30 30c0 11 1 26 29 37z" />
    <glyph glyph-name="odieresis" unicode="&#xf6;" 
d="M117 266c0 -97 39 -212 151 -212s151 115 151 212s-39 212 -151 212s-151 -115 -151 -212zM497 266c0 -150 -76 -272 -229 -272s-229 122 -229 272c0 134 73 272 229 272c157 0 229 -138 229 -272zM130 640c0 27 22 49 49 49s49 -22 49 -49s-22 -49 -49 -49
s-49 22 -49 49zM308 640c0 27 22 49 49 49s49 -22 49 -49s-22 -49 -49 -49s-49 22 -49 49z" />
    <glyph glyph-name="ograve" unicode="&#xf2;" 
d="M117 266c0 -97 39 -212 151 -212s151 115 151 212s-39 212 -151 212s-151 -115 -151 -212zM497 266c0 -150 -76 -272 -229 -272s-229 122 -229 272c0 134 73 272 229 272c157 0 229 -138 229 -272zM324 608l-138 53c-28 10 -28 23 -28 33c0 15 11 34 28 34
c6 0 14 -1 26 -6l138 -53c28 -10 28 -23 28 -33c0 -15 -11 -34 -28 -34c-6 0 -14 1 -26 6z" />
    <glyph glyph-name="otilde" unicode="&#xf5;" 
d="M117 266c0 -97 39 -212 151 -212s151 115 151 212s-39 212 -151 212s-151 -115 -151 -212zM497 266c0 -150 -76 -272 -229 -272s-229 122 -229 272c0 134 73 272 229 272c157 0 229 -138 229 -272zM208 640c-27 0 -31 -24 -55 -24c-19 0 -29 10 -29 27c0 32 38 63 80 63
c43 0 83 -27 124 -27c27 0 31 25 55 25c19 0 29 -10 29 -33c0 -26 -38 -57 -80 -57c-43 0 -83 26 -124 26z" />
    <glyph glyph-name="scaron" unicode="&#x161;" horiz-adv-x="444" 
d="M211 538c104 0 190 -44 188 -82c0 -16 -6 -35 -36 -35c-28 0 -65 57 -137 57c-50 0 -104 -24 -104 -75c0 -24 13 -49 49 -63l109 -44c72 -29 133 -64 133 -148c0 -94 -84 -154 -196 -154c-116 0 -192 67 -192 101c0 11 16 35 34 35c34 0 67 -76 161 -76
c69 0 115 41 115 91c0 47 -35 66 -74 82l-124 51c-54 22 -93 54 -93 120c0 87 86 140 167 140zM222 598l-127 49c-28 11 -29 26 -29 37c0 14 12 30 30 30c10 0 20 -3 26 -5l100 -45l100 45c6 2 16 5 26 5c18 0 30 -16 30 -30c0 -11 -1 -26 -29 -37z" />
    <glyph glyph-name="uacute" unicode="&#xfa;" 
d="M66 175v317c0 30 13 46 36 46s36 -16 36 -46v-299c0 -91 49 -139 130 -139s130 48 130 139v299c0 30 13 46 36 46s36 -16 36 -46v-317c0 -115 -88 -181 -202 -181s-202 66 -202 181zM186 669l138 53c12 5 20 6 26 6c17 0 28 -19 28 -34c0 -10 0 -23 -28 -33l-138 -53
c-12 -5 -20 -6 -26 -6c-17 0 -28 19 -28 34c0 10 0 23 28 33z" />
    <glyph glyph-name="ucircumflex" unicode="&#xfb;" 
d="M66 175v317c0 30 13 46 36 46s36 -16 36 -46v-299c0 -91 49 -139 130 -139s130 48 130 139v299c0 30 13 46 36 46s36 -16 36 -46v-317c0 -115 -88 -181 -202 -181s-202 66 -202 181zM268 714l127 -49c28 -11 29 -26 29 -37c0 -14 -12 -30 -30 -30c-10 0 -20 3 -26 5
l-100 45l-100 -45c-6 -2 -16 -5 -26 -5c-18 0 -30 16 -30 30c0 11 1 26 29 37z" />
    <glyph glyph-name="udieresis" unicode="&#xfc;" 
d="M66 175v317c0 30 13 46 36 46s36 -16 36 -46v-299c0 -91 49 -139 130 -139s130 48 130 139v299c0 30 13 46 36 46s36 -16 36 -46v-317c0 -115 -88 -181 -202 -181s-202 66 -202 181zM130 640c0 27 22 49 49 49s49 -22 49 -49s-22 -49 -49 -49s-49 22 -49 49zM308 640
c0 27 22 49 49 49s49 -22 49 -49s-22 -49 -49 -49s-49 22 -49 49z" />
    <glyph glyph-name="ugrave" unicode="&#xf9;" 
d="M66 175v317c0 30 13 46 36 46s36 -16 36 -46v-299c0 -91 49 -139 130 -139s130 48 130 139v299c0 30 13 46 36 46s36 -16 36 -46v-317c0 -115 -88 -181 -202 -181s-202 66 -202 181zM324 608l-138 53c-28 10 -28 23 -28 33c0 15 11 34 28 34c6 0 14 -1 26 -6l138 -53
c28 -10 28 -23 28 -33c0 -15 -11 -34 -28 -34c-6 0 -14 1 -26 6z" />
    <glyph glyph-name="yacute" unicode="&#xfd;" horiz-adv-x="426" 
d="M179 14l-163 470c-3 8 -4 15 -4 21c0 17 13 33 33 33s31 -12 38 -33l129 -386h2l129 386c7 21 18 33 38 33s33 -16 33 -33c0 -6 -1 -13 -4 -21l-230 -664c-8 -24 -19 -36 -39 -36c-22 0 -33 16 -33 30c0 9 2 19 6 29zM131 669l138 53c12 5 20 6 26 6c17 0 28 -19 28 -34
c0 -10 0 -23 -28 -33l-138 -53c-12 -5 -20 -6 -26 -6c-17 0 -28 19 -28 34c0 10 0 23 28 33z" />
    <glyph glyph-name="ydieresis" unicode="&#xff;" horiz-adv-x="426" 
d="M179 14l-163 470c-3 8 -4 15 -4 21c0 17 13 33 33 33s31 -12 38 -33l129 -386h2l129 386c7 21 18 33 38 33s33 -16 33 -33c0 -6 -1 -13 -4 -21l-230 -664c-8 -24 -19 -36 -39 -36c-22 0 -33 16 -33 30c0 9 2 19 6 29zM75 640c0 27 22 49 49 49s49 -22 49 -49
s-22 -49 -49 -49s-49 22 -49 49zM253 640c0 27 22 49 49 49s49 -22 49 -49s-22 -49 -49 -49s-49 22 -49 49z" />
    <glyph glyph-name="zcaron" unicode="&#x17e;" horiz-adv-x="444" 
d="M388 461l-267 -395h258c23 0 38 -15 38 -33s-15 -33 -38 -33h-309c-36 0 -42 19 -42 29c0 17 5 26 16 42l267 395h-234c-23 0 -38 15 -38 33s15 33 38 33h287c29 0 40 -11 40 -27c0 -17 -5 -28 -16 -44zM222 598l-127 49c-28 11 -29 26 -29 37c0 14 12 30 30 30
c10 0 20 -3 26 -5l100 -45l100 45c6 2 16 5 26 5c18 0 30 -16 30 -30c0 -11 -1 -26 -29 -37z" />
    <glyph glyph-name="Delta" unicode="&#x2206;" horiz-adv-x="624" 
d="M31 0v49l243 667h80l240 -666v-50h-563zM101 58h418l-142 388c-17 54 -52 139 -64 186h-4c-9 -39 -41 -117 -58 -171z" />
    <glyph glyph-name="Omega" unicode="&#x2126;" horiz-adv-x="694" 
d="M193 58v3c-70 65 -132 173 -132 314c0 198 126 334 289 334c172 0 281 -154 281 -330c0 -146 -67 -260 -133 -318v-3h147v-58h-230v43c74 52 146 164 146 323c0 131 -71 283 -212 283c-133 0 -217 -126 -217 -285c0 -149 72 -271 146 -321v-43h-230v58h145z" />
    <glyph glyph-name="pi" unicode="&#x3c0;" horiz-adv-x="549" 
d="M523 458h-78v-312c0 -83 7 -120 14 -146h-67c-9 16 -17 57 -17 139v319h-177c-5 -131 -35 -363 -71 -458h-69c38 108 66 322 71 458c-61 0 -88 -5 -108 -12l-11 47c24 15 64 26 137 26h383z" />
    <glyph glyph-name="Euro" unicode="&#x20ac;" 
d="M493 673v-74c-29 28 -77 51 -145 51c-112 0 -167 -85 -178 -197h280l-19 -58h-268c-1 -10 -1 -26 -1 -38c0 -14 1 -29 1 -39h241l-19 -57h-215c14 -130 76 -201 178 -201c69 0 113 23 145 51v-74c-24 -21 -77 -42 -154 -42c-135 0 -221 82 -242 266h-71l19 57h46
c-1 10 -2 26 -2 39s1 27 2 38h-65l19 58h51c19 154 90 264 243 264c73 0 128 -23 154 -44z" />
    <glyph glyph-name="estimated" unicode="&#x212e;" horiz-adv-x="873" 
d="M838 346h-651c-3 0 -5 -1 -5 -4v-197c0 -9 3 -17 8 -23c63 -65 150 -107 246 -107c104 0 196 47 260 120h57c-71 -85 -188 -140 -318 -140c-221 0 -401 161 -401 360c0 201 180 363 401 363c223 0 403 -162 403 -363v-9zM690 372v198c0 8 -3 17 -9 23
c-64 62 -149 103 -245 103c-95 0 -182 -42 -245 -106c-6 -6 -9 -15 -9 -25v-193c0 -3 2 -7 5 -7h499c3 0 4 4 4 7z" />
    <glyph glyph-name="partialdiff" unicode="&#x2202;" horiz-adv-x="527" 
d="M99 682l-25 52c32 26 83 55 160 55c124 0 244 -118 244 -377c0 -237 -86 -413 -251 -413c-125 0 -185 113 -185 229c0 156 98 255 206 255c89 0 144 -64 160 -94h1c1 12 1 31 1 44c0 178 -84 297 -183 297c-59 0 -101 -25 -128 -48zM232 57h1c94 0 154 123 167 260
c-15 45 -66 109 -142 109c-80 0 -147 -89 -147 -198c0 -99 48 -171 121 -171z" />
    <glyph glyph-name="product" unicode="&#x220f;" horiz-adv-x="675" 
d="M648 633h-105v-729h-69v729h-274v-729h-69v729h-105v65h622v-65z" />
    <glyph glyph-name="summation" unicode="&#x2211;" 
d="M513 -96h-491v47l263 348l-251 349v50h464v-61h-368v-4l234 -323l-253 -336v-4h402v-66z" />
    <glyph glyph-name="uni2219" unicode="&#x2219;" horiz-adv-x="240" 
d="M74 319c0 24 22 46 46 46s46 -22 46 -46s-22 -46 -46 -46s-46 22 -46 46z" />
    <glyph glyph-name="radical" unicode="&#x221a;" horiz-adv-x="554" 
d="M553 829l-215 -979h-62l-156 466l-72 -28l-15 44l131 51l125 -374c6 -23 13 -53 16 -72h2c2 18 8 47 12 72l181 820h53z" />
    <glyph glyph-name="infinity" unicode="&#x221e;" horiz-adv-x="759" 
d="M709 291v-2c0 -94 -72 -154 -149 -154c-62 0 -111 39 -179 116c-52 -59 -106 -116 -186 -116c-79 0 -146 65 -146 151c0 89 65 154 153 154c74 0 130 -56 182 -117c51 57 101 117 183 117c85 0 142 -61 142 -149zM202 179h1c63 0 111 62 152 105c-44 54 -89 113 -159 113
c-63 0 -99 -53 -99 -112c1 -58 42 -106 105 -106zM562 397h-1c-66 0 -119 -73 -153 -108c65 -72 103 -110 156 -110c62 0 98 55 98 107c0 70 -43 111 -100 111z" />
    <glyph glyph-name="integral" unicode="&#x222b;" horiz-adv-x="347" 
d="M330 838l-12 -49c-8 5 -23 10 -35 10c-17 0 -37 -7 -50 -24c-24 -30 -33 -83 -33 -179c0 -156 13 -342 13 -504c0 -108 -20 -168 -42 -202c-21 -34 -58 -50 -95 -50c-25 0 -51 9 -63 16l13 52c9 -4 25 -12 44 -12c16 0 34 8 45 23c19 26 34 71 34 173
c0 163 -13 354 -13 511c0 108 13 170 51 210c24 26 58 39 91 39c20 0 42 -8 52 -14z" />
    <glyph glyph-name="approxequal" unicode="&#x2248;" horiz-adv-x="547" 
d="M472 426l29 -25c-25 -51 -65 -93 -125 -93c-39 0 -67 15 -114 41c-30 18 -58 33 -91 33c-45 0 -72 -34 -96 -73l-31 25c30 57 78 93 134 93c47 0 83 -26 109 -40c34 -19 57 -34 92 -34c40 0 66 25 93 73zM472 260l29 -25c-26 -51 -64 -92 -125 -92c-39 0 -66 15 -114 41
c-30 18 -58 34 -90 34c-47 0 -73 -36 -97 -74l-31 24c30 58 78 94 134 94c48 0 82 -26 109 -40c33 -18 57 -34 93 -34c40 0 64 25 92 72z" />
    <glyph glyph-name="notequal" unicode="&#x2260;" horiz-adv-x="547" 
d="M387 498l-44 -97h154v-46h-172l-66 -143h238v-46h-257l-52 -115l-37 17l45 98h-146v46h165l66 143h-231v46h249l52 114z" />
    <glyph glyph-name="lessequal" unicode="&#x2264;" horiz-adv-x="547" 
d="M494 98l-439 222v48l439 222v-56l-389 -188v-2l389 -190v-56zM497 10h-447v48h447v-48z" />
    <glyph glyph-name="greaterequal" unicode="&#x2265;" horiz-adv-x="547" 
d="M56 590l439 -222v-48l-439 -222v56l388 189v2l-388 189v56zM496 10h-445v48h445v-48z" />
    <glyph glyph-name="lozenge" unicode="&#x25ca;" horiz-adv-x="555" 
d="M501 348l-197 -392h-57l-193 392l196 393h57zM436 347l-140 281c-7 16 -14 38 -18 52h-3c-4 -15 -10 -34 -19 -52l-139 -278l141 -283c9 -20 15 -39 17 -51h4c3 12 11 37 17 50z" />
    <glyph glyph-name="uni02C9" unicode="&#x2c9;" horiz-adv-x="204" 
d="M196 597h-188c-30 0 -46 13 -46 36s16 36 46 36h188c30 0 46 -13 46 -36s-16 -36 -46 -36z" />
    <glyph glyph-name="uni00AD" unicode="&#xad;" horiz-adv-x="352" 
d="M79 299h194c23 0 38 -15 38 -33s-15 -33 -38 -33h-194c-23 0 -38 15 -38 33s15 33 38 33z" />
    <glyph glyph-name="uni03A9" unicode="&#x3a9;" horiz-adv-x="694" 
d="M193 58v3c-70 65 -132 173 -132 314c0 198 126 334 289 334c172 0 281 -154 281 -330c0 -146 -67 -260 -133 -318v-3h147v-58h-230v43c74 52 146 164 146 323c0 131 -71 283 -212 283c-133 0 -217 -126 -217 -285c0 -149 72 -271 146 -321v-43h-230v58h145z" />
    <glyph glyph-name="uni00A0" unicode="&#xa0;" horiz-adv-x="240" 
 />
    <glyph glyph-name="afii61289" unicode="&#x2113;" horiz-adv-x="468" 
d="M411 150l34 -29c-42 -81 -103 -122 -179 -122c-112 0 -156 87 -159 187v13c-18 -14 -38 -31 -56 -47l-22 42c28 24 54 45 77 69v275c0 181 76 237 148 237c80 0 118 -70 118 -160c0 -126 -80 -246 -200 -367l1 -34c0 -115 50 -159 107 -159c61 0 107 51 131 95zM172 542
v-223c85 95 152 195 152 295c0 65 -19 108 -70 108c-38 0 -82 -45 -82 -180z" />
    <glyph glyph-name="uni03BC" unicode="&#x3bc;" 
d="M66 -170v662c0 30 13 46 36 46s36 -16 36 -46v-299c0 -91 49 -139 130 -139s130 48 130 139v299c0 30 13 46 36 46s36 -16 36 -46v-462c0 -20 -16 -36 -36 -36s-36 16 -36 36c-33 -23 -79 -36 -130 -36c-49 0 -92 17 -128 56h-2v-220c0 -30 -13 -46 -36 -46
s-36 16 -36 46z" />
    <glyph glyph-name="uni2215" unicode="&#x2215;" horiz-adv-x="166" 
d="M-72 38l260 665c6 15 14 25 31 25s28 -10 28 -23c0 -8 -3 -16 -9 -31l-260 -665c-6 -15 -14 -25 -31 -25s-28 10 -28 23c0 8 3 16 9 31z" />
    </font>
</defs>
</svg>
